<?xml version="1.0" encoding="UTF-8"?>
<!DOCTYPE svg PUBLIC "-//W3C//DTD SVG 1.1//EN" "http://www.w3.org/Graphics/SVG/1.1/DTD/svg11.dtd">
<!-- Creator: CorelDRAW (Evaluation Version) -->
<svg xmlns="http://www.w3.org/2000/svg" xml:space="preserve" width="78.1503mm" height="110.074mm" version="1.1" style="shape-rendering:geometricPrecision; text-rendering:geometricPrecision; image-rendering:optimizeQuality; fill-rule:evenodd; clip-rule:evenodd"
viewBox="0 0 1832.69 2581.32"
 xmlns:xlink="http://www.w3.org/1999/xlink"
 xmlns:xodm="http://www.corel.com/coreldraw/odm/2003">
 <defs>
  <style type="text/css">
   <![CDATA[
    .fil0 {fill:white;fill-rule:nonzero}
   ]]>
  </style>
 </defs>
 <g id="Layer_x0020_1">
  <metadata id="CorelCorpID_0Corel-Layer"/>
  <path class="fil0" d="M569.18 791.72l-2.48 792.55 -282.93 2.48c-162.15,0.83 -283.76,4.96 -283.76,9.1 0,13.24 895.13,910.85 908.37,910.85 6.62,0 30.61,16.55 52.12,37.23 71.98,67.01 40.54,89.35 468.25,-337.54 206.82,-205.17 383.86,-386.35 392.96,-401.24 23.99,-38.88 12.41,-46.33 -71.98,-50.46 -38.88,-0.83 -70.32,-5.79 -70.32,-9.93 0,-8.27 71.98,-94.31 110.86,-130.71 16.55,-15.72 29.78,-32.26 29.78,-35.57 0,-3.31 -103.41,-6.62 -229.16,-6.62 -126.58,0 -238.26,-2.48 -248.19,-4.96l-19.03 -4.96 -1.66 -674.25 -2.48 -674.25 -19.86 -15.72c-10.75,-8.27 -25.65,-15.72 -34.75,-15.72 -23.16,0 -27.3,-14.06 -32.26,-99.27l-4.14 -78.59 -328.44 -2.48 -329.26 -1.66 -1.66 791.72 0 0z"/>
 </g>
</svg>
