<?xml version="1.0" encoding="UTF-8"?>
<!DOCTYPE svg PUBLIC "-//W3C//DTD SVG 1.1//EN" "http://www.w3.org/Graphics/SVG/1.1/DTD/svg11.dtd">
<!-- Creator: CorelDRAW (Evaluation Version) -->
<svg xmlns="http://www.w3.org/2000/svg" xml:space="preserve" width="109.714mm" height="78.6254mm" version="1.1" style="shape-rendering:geometricPrecision; text-rendering:geometricPrecision; image-rendering:optimizeQuality; fill-rule:evenodd; clip-rule:evenodd"
viewBox="0 0 9174.98 6575.16"
 xmlns:xlink="http://www.w3.org/1999/xlink"
 xmlns:xodm="http://www.corel.com/coreldraw/odm/2003">
 <defs>
  <style type="text/css">
   <![CDATA[
    .fil0 {fill:white;fill-rule:nonzero}
   ]]>
  </style>
 </defs>
 <g id="Layer_x0020_1">
  <metadata id="CorelCorpID_0Corel-Layer"/>
  <path class="fil0" d="M1628.48 1631.43c-893.9,893.9 -1628.48,1640.28 -1628.48,1652.09 0,11.8 728.69,755.24 1619.64,1652.09 1572.44,1581.28 1622.59,1628.48 1740.59,1637.34 67.85,2.95 123.91,2.95 126.85,0 2.95,-5.9 11.8,-342.22 20.65,-746.39 14.75,-637.23 23.6,-749.34 70.81,-814.25 112.11,-165.21 -2.95,-159.31 2843.95,-168.16l2631.54 -8.85 59.01 -76.7c59.01,-73.75 61.95,-112.11 61.95,-979.45 0,-976.5 -2.95,-1006 -162.26,-1065.01 -76.7,-29.5 -103.25,-129.8 -103.25,-401.22l0 -185.86 -2616.79 -8.85c-1442.62,-5.9 -2643.34,-20.65 -2669.89,-32.46 -41.3,-23.6 -50.15,-97.36 -59.01,-598.88 -8.85,-610.68 -23.6,-663.79 -150.46,-595.93 -29.5,14.75 -64.9,20.65 -73.75,8.85 -11.8,-11.8 -26.55,-218.32 -29.5,-460.22 -5.9,-241.91 -20.65,-439.57 -29.5,-439.57 -11.8,0 -755.24,734.59 -1652.09,1631.44l0.01 -0.01z"/>
 </g>
</svg>
