<?xml version="1.0" encoding="UTF-8"?>
<!DOCTYPE svg PUBLIC "-//W3C//DTD SVG 1.1//EN" "http://www.w3.org/Graphics/SVG/1.1/DTD/svg11.dtd">
<!-- Creator: CorelDRAW (Evaluation Version) -->
<svg xmlns="http://www.w3.org/2000/svg" xml:space="preserve" width="107.244mm" height="78.2432mm" version="1.1" style="shape-rendering:geometricPrecision; text-rendering:geometricPrecision; image-rendering:optimizeQuality; fill-rule:evenodd; clip-rule:evenodd"
viewBox="0 0 2166.77 1580.83"
 xmlns:xlink="http://www.w3.org/1999/xlink"
 xmlns:xodm="http://www.corel.com/coreldraw/odm/2003">
 <defs>
  <style type="text/css">
   <![CDATA[
    .fil0 {fill:white;fill-rule:nonzero}
   ]]>
  </style>
 </defs>
 <g id="Layer_x0020_1">
  <metadata id="CorelCorpID_0Corel-Layer"/>
  <path class="fil0" d="M1352.81 250.89l-2.14 251.6 -674.98 2.14 -675.69 1.43 0 285.1 0 285.1 34.21 0.71c54.88,1.43 67.71,7.13 76.26,37.06 15.68,55.6 -39.92,50.61 640.05,54.88l607.27 3.56 4.28 21.38c2.85,11.4 4.99,100.5 5.7,198.15l0.71 176.76 46.33 -39.92c25.66,-21.38 49.18,-39.2 52.74,-39.2 2.85,0 7.84,17.82 9.98,39.92 4.99,46.33 11.4,56.31 33.5,49.18 8.55,-2.85 159.66,-148.25 335.71,-322.88 307.91,-306.48 320.03,-319.31 320.03,-344.97 0,-19.96 -5.7,-33.5 -22.1,-52.03l-22.81 -25.66 15.68 -20.67c7.84,-11.4 14.97,-23.52 14.97,-26.37 0,-9.27 -779.75,-786.17 -789.02,-786.17 -7.13,0 -9.27,57.73 -10.69,250.89z"/>
 </g>
</svg>
