<?xml version="1.0" encoding="UTF-8"?>
<!DOCTYPE svg PUBLIC "-//W3C//DTD SVG 1.1//EN" "http://www.w3.org/Graphics/SVG/1.1/DTD/svg11.dtd">
<!-- Creator: CorelDRAW (Evaluation Version) -->
<svg xmlns="http://www.w3.org/2000/svg" xml:space="preserve" width="78.0927mm" height="109.028mm" version="1.1" style="shape-rendering:geometricPrecision; text-rendering:geometricPrecision; image-rendering:optimizeQuality; fill-rule:evenodd; clip-rule:evenodd"
viewBox="0 0 5074.73 7084.97"
 xmlns:xlink="http://www.w3.org/1999/xlink"
 xmlns:xodm="http://www.corel.com/coreldraw/odm/2003">
 <defs>
  <style type="text/css">
   <![CDATA[
    .fil0 {fill:white;fill-rule:nonzero}
   ]]>
  </style>
 </defs>
 <g id="Layer_x0020_1">
  <metadata id="CorelCorpID_0Corel-Layer"/>
  <path class="fil0" d="M1265.44 1243.77c-696.91,696.91 -1265.44,1272.32 -1265.44,1283.79 0,9.17 130.67,16.04 293.44,16.04 311.78,0 467.67,27.51 449.32,77.94 -27.51,73.36 59.6,93.99 447.03,100.87 208.62,4.59 392.01,18.34 403.48,29.8 13.76,16.04 27.51,754.22 34.39,2079.27l11.46 2056.35 126.09 4.59c254.46,11.46 318.65,29.8 389.72,105.45l68.77 73.36 685.45 6.88 685.45 6.88 64.19 -57.31 66.48 -55.02 11.46 -2015.08c11.46,-2187.01 6.88,-2090.73 139.84,-2189.31 93.99,-71.07 213.2,-87.12 657.94,-87.12 428.69,0 508.93,-13.76 508.93,-87.12 0,-22.93 13.76,-55.02 29.8,-71.07 22.93,-22.93 -213.2,-268.22 -1215.01,-1263.15 -685.45,-680.86 -1263.15,-1244.81 -1286.07,-1258.57 -36.68,-18.34 -222.37,158.18 -1306.7,1242.52l-0.02 0.01z"/>
 </g>
</svg>
