<?xml version="1.0" encoding="UTF-8"?>
<!DOCTYPE svg PUBLIC "-//W3C//DTD SVG 1.1//EN" "http://www.w3.org/Graphics/SVG/1.1/DTD/svg11.dtd">
<!-- Creator: CorelDRAW (Evaluation Version) -->
<svg xmlns="http://www.w3.org/2000/svg" xml:space="preserve" width="114.095mm" height="134.781mm" version="1.1" style="shape-rendering:geometricPrecision; text-rendering:geometricPrecision; image-rendering:optimizeQuality; fill-rule:evenodd; clip-rule:evenodd"
viewBox="0 0 5619.44 6638.24"
 xmlns:xlink="http://www.w3.org/1999/xlink"
 xmlns:xodm="http://www.corel.com/coreldraw/odm/2003">
 <defs>
  <style type="text/css">
   <![CDATA[
    .fil0 {fill:white}
   ]]>
  </style>
 </defs>
 <g id="Layer_x0020_1">
  <metadata id="CorelCorpID_0Corel-Layer"/>
  <path class="fil0" d="M2574.15 315.52c223.31,51.29 425.52,179.26 577.39,349.54 99.96,112.06 147.14,257.5 206.48,325.58 180.18,736.07 -31.06,627.73 -28.58,990.41 0.85,123.91 -2.01,248.61 -0.49,372.22 47.26,-25.52 93.01,-87.36 114.79,-127.11 212.16,-235.64 312.58,-693.79 257.91,-1032.69 -109.07,-676.16 -757.24,-1207.22 -1423.15,-1193.2 -130.99,2.75 -267.72,25.37 -379.04,61.59 -156.98,51.07 -397.66,171.18 -516.5,293.08 -127.55,130.85 -239.36,252.15 -318.89,424.8 -75.35,163.57 -131.69,329.38 -144.6,536.13 -28.44,455.2 123.28,706.47 351.93,1018.04 54.61,-52.03 22.39,-488 -5.15,-567.38 -288.19,-830.71 451.34,-1647.7 1307.9,-1451.01zm-2218.66 4228.23c-36.16,-89.4 -56.66,-190.74 -46.74,-295.17 18.15,-190.87 126.48,-360.1 269.32,-419.84 66.5,-70.09 266.13,-106.23 396.69,-71.17 147.73,39.67 215.28,137.11 292.28,212.61 75.63,74.15 473.71,462.77 495.63,513.44 54.01,-9.7 17.44,23.31 32.38,-38.6l-0.93 -1812.26c0,-218.91 -24.62,-1211.81 27.96,-1382.46 31.51,-102.28 124.46,-224.89 222.12,-260.76 42.39,-72.37 280.46,-96.17 414.25,-49.05 504.54,177.68 383.28,749.04 383.28,1210.04l7.5 1333.92c16.73,67.66 101.58,105.6 155.78,44.27 45.84,-51.86 25.05,-402.68 25.05,-498.8 163.69,-146.98 401.07,-152.69 564.71,-5.6 120.8,108.59 77.46,255.95 78.69,508.26 0.54,111.94 3.93,77.07 45.22,146.72 191.41,19.51 133.26,-103.76 142.14,-456.71 116.64,-97.03 285.51,-151.14 458.11,-61.48 204.23,106.1 208.09,248.84 207.08,410.01 -0.64,102.68 -5.35,211.79 -2.3,313.65 3.15,105.05 84.54,166.16 157.07,94.39 49.71,-49.18 29.27,-478.26 31.22,-584.33 30.2,-69.3 430.75,-186.87 599.06,142.27 63.18,123.53 46.06,253.31 46.05,411.97l0 1368.48c0.18,463.55 -156.14,865.51 -639.93,990.26 -193.93,50 -1368.64,26.69 -1617.25,26.69 -285.65,0 -803.73,39.04 -1025.71,-69.27 -169.4,-82.66 -301.71,-245.66 -439.22,-382.03 -138.47,-142.33 -1222.48,-1198.41 -1279.53,-1339.46zm4913.02 1790.18c61.6,-62.24 119.67,-126.69 170.52,-214.94 25.76,-44.72 113.3,-258.42 130.07,-277.12 -10.52,-345.42 46.08,-872.62 46.08,-1267.19 0,-223.31 10.45,-791.26 -1.4,-990.94 -14.55,-245.11 -174.36,-466.31 -415.3,-534.35 -266.76,-75.34 -359.32,22.76 -495.46,62.07 -105.64,-116.86 -157.48,-221.65 -352.12,-283.85 -269.97,-86.27 -421.83,43.98 -521.1,70.54 -57.66,-50.41 -77.13,-117.55 -194.5,-201.18 -80.15,-57.11 -159.14,-95.22 -270.3,-108.77 -148.14,-8.47 -172.76,17.75 -292.09,32.97 -3.35,-419.17 11.56,-926.76 -0.15,-1330.93 -5.37,-185.46 -44.07,-220.61 -89.53,-362.82 -89.99,-84.01 -122.04,-184.03 -334.46,-282.93 -159.13,-74.09 -349.85,-97.27 -544.18,-51.56 -324.3,76.28 -564.13,326.97 -575.94,696.89 -26.93,843.06 10.99,1711.23 -1.51,2558.17 -109.89,-56.64 -232.5,-299.77 -495.59,-371.85 -257.69,-70.61 -505.13,34.02 -678.17,149.37 -180.4,120.26 -285.17,269.55 -337.35,541.07 -61.77,321.38 58.61,577.66 300.19,788.86 127.13,129.83 244.34,249.01 373.63,374.29 137.74,137.51 591.84,630.05 694.69,681.84l463.85 459.88c251.06,143.65 331.57,156.55 665.07,158.55 277.59,1.66 556.21,0.15 834.11,0.15 269.82,0 1439.25,44.84 1567.34,-76.87l137.12 -46.3c11.47,-13.44 6.66,-9.24 21.92,-22.37 44.41,-38.2 78.67,-48.66 194.55,-150.69z"/>
 </g>
</svg>
