<?xml version="1.0" encoding="UTF-8"?>
<!DOCTYPE svg PUBLIC "-//W3C//DTD SVG 1.1//EN" "http://www.w3.org/Graphics/SVG/1.1/DTD/svg11.dtd">
<!-- Creator: CorelDRAW (Evaluation Version) -->
<svg xmlns="http://www.w3.org/2000/svg" xml:space="preserve" width="185.208mm" height="180.856mm" version="1.1" style="shape-rendering:geometricPrecision; text-rendering:geometricPrecision; image-rendering:optimizeQuality; fill-rule:evenodd; clip-rule:evenodd"
viewBox="0 0 12878.22 12575.61"
 xmlns:xlink="http://www.w3.org/1999/xlink"
 xmlns:xodm="http://www.corel.com/coreldraw/odm/2003">
 <defs>
  <style type="text/css">
   <![CDATA[
    .str0 {stroke:white;stroke-width:613.25;stroke-linejoin:round;stroke-miterlimit:22.9256}
    .fil0 {fill:white}
   ]]>
  </style>
 </defs>
 <g id="Layer_x0020_1">
  <metadata id="CorelCorpID_0Corel-Layer"/>
  <path id="github.svg" class="fil0 str0" d="M6439.11 306.62c-3388.2,0 -6132.49,2744.29 -6132.49,6132.49 0,2713.62 1755.42,5005.65 4193.09,5818.2 306.62,53.66 421.61,-130.32 421.61,-291.3 0,-145.65 -7.67,-628.58 -7.67,-1142.18 -1540.78,283.63 -1939.4,-375.61 -2062.05,-720.56 -68.98,-176.31 -367.94,-720.57 -628.58,-866.22 -214.64,-114.98 -521.26,-398.61 -7.66,-406.28 482.93,-7.66 827.88,444.61 942.87,628.59 551.92,927.54 1433.47,666.91 1786.09,505.93 53.66,-398.61 214.64,-666.91 390.95,-820.22 -1364.48,-153.32 -2790.29,-682.24 -2790.29,-3027.92 0,-666.91 237.64,-1218.84 628.59,-1648.11 -61.33,-153.31 -275.97,-781.89 61.32,-1625.11 0,0 513.6,-160.98 1686.44,628.58 490.6,-137.98 1011.86,-206.97 1533.12,-206.97 521.26,0 1042.52,68.99 1533.12,206.97 1172.84,-797.22 1686.44,-628.58 1686.44,-628.58 337.29,843.22 122.65,1471.8 61.32,1625.11 390.95,429.27 628.58,973.54 628.58,1648.11 0,2353.34 -1433.47,2874.6 -2797.95,3027.92 222.31,191.64 413.95,559.59 413.95,1134.51 0,820.22 -7.67,1479.46 -7.67,1686.43 0,160.98 114.99,352.62 421.61,291.3 1217.42,-411 2275.28,-1193.39 3024.73,-2237.14 749.46,-1043.69 1152.72,-2296.12 1153.03,-3581.07 0,-3388.2 -2744.29,-6132.49 -6132.49,-6132.49z"/>
 </g>
</svg>
