<?xml version="1.0" encoding="UTF-8"?>
<!DOCTYPE svg PUBLIC "-//W3C//DTD SVG 1.1//EN" "http://www.w3.org/Graphics/SVG/1.1/DTD/svg11.dtd">
<!-- Creator: CorelDRAW (Evaluation Version) -->
<svg xmlns="http://www.w3.org/2000/svg" xml:space="preserve" width="80.8177mm" height="11.7893mm" version="1.1" style="shape-rendering:geometricPrecision; text-rendering:geometricPrecision; image-rendering:optimizeQuality; fill-rule:evenodd; clip-rule:evenodd"
viewBox="0 0 5764.9 840.96"
 xmlns:xlink="http://www.w3.org/1999/xlink"
 xmlns:xodm="http://www.corel.com/coreldraw/odm/2003">
 <defs>
  <style type="text/css">
   <![CDATA[
    .fil4 {fill:#6A53EA}
    .fil2 {fill:#7754EA}
    .fil1 {fill:#845BFC}
    .fil3 {fill:#865AEC}
    .fil0 {fill:white}
   ]]>
  </style>
 </defs>
 <g id="Layer_x0020_1">
  <metadata id="CorelCorpID_0Corel-Layer"/>
  <g id="_850260344">
   <path class="fil0" d="M975.02 358.45c0.89,-140.91 108.53,-243.98 256.34,-246.87 139.76,-2.72 256.68,111.58 254.76,250.58l-511.1 -3.72zm595.36 266.31c-166.27,-57.02 -152.04,143.01 -372.22,112.74 -114.53,-15.74 -239.68,-144.6 -233.76,-275.66l655.56 -4.81c30.79,-397.51 -336.29,-563.99 -619.36,-384.72 -229.28,145.2 -236.83,603.89 60.86,731.16 260.36,111.3 504.52,-51.44 508.91,-178.72z"/>
   <path class="fil0" d="M4347.83 358.85c-20.91,-132.38 120.68,-248.44 258.69,-247.59 135.44,0.83 259.11,114.36 242.39,250.16l-501.08 -2.57zm-1.28 107.59c68.18,-32.96 519.55,1.93 647.55,-12.91 53.78,-543.14 -686.66,-606.15 -774.43,-147.27 -99.09,517.99 418.13,638.18 629.66,452.43 10.64,-9.34 133.78,-111.21 81.58,-141.69 -108.39,-63.28 -163.86,152.18 -368.36,119.3 -66.37,-10.67 -127.36,-51.98 -158.91,-88.68 -24,-27.91 -55.6,-89.32 -61.82,-129.68l4.72 -51.49z"/>
   <path class="fil0" d="M3222 731.2c-8.71,38.43 -5.16,69.63 15.59,102.15 412.71,82.89 287.5,-535.45 359.41,-700.36l333.94 -0.6c13.1,22.18 5.12,2.08 11.56,31.25 11.69,53.06 -11.61,531.96 7.35,644.3 30.87,7.3 93.57,19.1 111.97,1.7l6.73 -16.21c11.18,-46.69 6.36,-111.34 6.4,-159.79l-0.7 -602.3 -619.13 -0.98c-1.61,154.11 -14.44,295.14 -25.16,439.73 -14.29,192.65 -18.87,242.32 -207.96,261.12z"/>
   <path class="fil0" d="M3190.33 566.58c-174.47,-5.59 -86.73,30.62 -171.12,108.27 -45.19,41.58 -125.65,62.49 -205.79,52.74 -314.6,-38.28 -291.96,-578.29 -10.61,-609.45 84.66,-9.37 154.53,6.65 204.3,49.8 90.24,78.23 20.02,120.24 159.61,110.22l40.83 -6.42c-7.21,-85.88 -78.07,-170.51 -148.01,-215.52 -207.79,-133.75 -620.4,-33.15 -615.61,365.25 2.75,228.91 120.94,375.37 323.86,409.33 126.82,21.23 219.46,-1.45 306.21,-54.14 32.28,-19.62 168.41,-147.36 116.32,-210.07z"/>
   <path class="fil0" d="M1760.05 28.72c-5.36,124.85 -21.76,756.46 3.52,780.71 35.47,18.43 79.86,11.48 122.27,-4.76l3.37 -354.48c101.77,30.58 343.62,387.15 436.71,368.45 183.16,-36.8 -255.55,-350.78 -289.22,-421.02 22.3,-35.05 219.35,-197.36 273.71,-242.85 33.11,-27.71 62.62,-49.76 64.4,-111.25 -72.04,-42.46 -76.35,-26.89 -135.49,27.88 -73.16,67.74 -151.99,120.35 -228.73,196.61 -38.73,38.5 -64.7,78.58 -119.75,99.66 -4.69,-82.05 -3.05,-160.1 -2.03,-242.02 1.32,-105.65 -9.42,-135.87 -128.75,-96.93z"/>
   <path class="fil0" d="M5019.4 126.2c43.47,22.06 230.55,3.1 295.67,10.46 0.34,78.42 -9.94,624.93 12.48,673.99l112.85 8.66 8.01 -676.6c395.59,-27.27 276.39,31.12 316.48,-114.82l-639.19 -5.53c-103.3,-0.31 -143.33,-16.24 -106.31,103.84z"/>
   <path class="fil1" d="M13.67 741.32l14.12 26.44c122.28,0.38 76.52,-21.39 95.34,11.79l269.79 -263.43c15.24,-21.83 3.79,2.6 10.28,-20.01 -12.08,-40.3 -4.24,-23.1 -20.02,-33.8 -0.9,-0.61 -4.08,-2.55 -5.02,-3.28 -0.88,-0.68 -3.48,-2.79 -4.34,-3.56 -0.86,-0.76 -3,-3.2 -3.85,-4.04l-52.79 -34.33c-25.99,59.48 -242.32,229.92 -303.5,324.21z"/>
   <path class="fil0" d="M452.21 551.03c94.82,88.27 290.27,341.4 349.56,243.95 2.87,-18.03 5.13,-9.16 2.22,-29.87 -4.58,-32.58 4.49,-1.38 -7.36,-25.24 -3.3,-6.64 -31.78,-38.21 -38.73,-45.78 -27.34,-29.78 -47.27,-48.86 -75.45,-77.89 -23.56,-24.28 -143.25,-140.54 -147.28,-154.16 -44.79,20.31 -62.24,48.25 -82.96,88.99z"/>
   <path class="fil0" d="M453.04 303.21c15.32,36.77 43.14,59.73 82.12,79.43 10.2,-64.98 293.65,-213.56 263.89,-356.59 -77.37,-19.23 -103.4,30.65 -189.44,115.52 -52.78,52.07 -109.6,105.87 -156.58,161.65z"/>
   <path class="fil2" d="M259.68 336.45c-0.43,-112.16 -11.91,20.84 -31.22,-92.18l56.58 34.13c5.53,14.66 28.82,17.93 87.66,81.38l37.31 33.32c1.93,0.53 5.63,1.08 7.58,1.23l16.43 -3.45c1.85,-0.34 6.21,-1.56 8.68,-3.47 -36.27,-71.4 -27.28,-32.92 -93.66,-98.69 -60.82,-60.24 -241.66,-263.72 -312.14,-278.67 -76.35,81.11 -13.7,110.2 52.57,172.5 46.08,43.31 120.09,130.45 170.22,153.9z"/>
   <path class="fil3" d="M259.68 336.45c12.24,35.06 32.75,40.56 57.49,80.66l52.79 34.33c0.86,0.84 2.99,3.28 3.85,4.04 0.86,0.77 3.47,2.88 4.34,3.56 0.94,0.73 4.12,2.67 5.02,3.28 15.78,10.69 7.95,-6.51 20.02,33.8 40.2,-23.47 13.12,-3.22 40.07,-37.56 10.69,-13.6 16.11,-23.24 28.36,-37.34l-28.93 -33.81c-2.47,1.91 -6.83,3.14 -8.68,3.47l-16.43 3.45c-1.95,-0.16 -5.65,-0.7 -7.58,-1.23l-37.31 -33.32c-58.84,-63.46 -82.13,-66.72 -87.66,-81.38l-56.58 -34.13c19.31,113.02 30.79,-19.98 31.22,92.18z"/>
   <path class="fil4" d="M123.13 779.55c-18.82,-33.18 26.94,-11.41 -95.34,-11.79l-14.12 -26.44c-21.96,35.07 -13.35,41.4 -2.6,74.63 65.13,8.92 76.56,-1.56 112.06,-36.4z"/>
  </g>
 </g>
</svg>
