<?xml version="1.0" encoding="UTF-8"?>
<!DOCTYPE svg PUBLIC "-//W3C//DTD SVG 1.1//EN" "http://www.w3.org/Graphics/SVG/1.1/DTD/svg11.dtd">
<!-- Creator: CorelDRAW (Evaluation Version) -->
<svg xmlns="http://www.w3.org/2000/svg" xml:space="preserve" width="17.8826mm" height="17.8657mm" version="1.1" style="shape-rendering:geometricPrecision; text-rendering:geometricPrecision; image-rendering:optimizeQuality; fill-rule:evenodd; clip-rule:evenodd"
viewBox="0 0 88.85 88.77"
 xmlns:xlink="http://www.w3.org/1999/xlink"
 xmlns:xodm="http://www.corel.com/coreldraw/odm/2003">
 <defs>
  <style type="text/css">
   <![CDATA[
    .fil0 {fill:white}
   ]]>
  </style>
 </defs>
 <g id="Layer_x0020_1">
  <metadata id="CorelCorpID_0Corel-Layer"/>
  <g id="_567638032">
   <path class="fil0" d="M46.51 22.21l0 1.21c0,1.85 3.33,2.64 3.48,-0.34 0.05,-0.95 0.17,-1.33 0.17,-2.43 1.13,-0.26 2.61,-1.21 5.38,-1.21 7.45,0 7.17,1.06 9.02,1.21 -0.19,0.7 -1.09,0.89 -2.23,1.76 -1.54,1.17 -3.12,2.59 -5.06,3.1 -1.33,0.35 -2.26,0.62 -2.26,2.08 0,2.02 3.13,1.62 5.59,5.34 0.48,0.72 1.14,1.58 1.35,2.47 -0.89,-0.21 -1.98,-0.6 -2.96,-0.69 -2.16,-0.18 -4.74,0.33 -6.59,-0.35 -1.52,-0.56 -1.69,-1.22 -2.43,-1.22 -1.11,0 -1.79,0.76 -1.89,1.75 -0.18,1.65 0.05,1.7 -0.46,3.18 -0.5,1.45 -2.08,3.34 -3.2,4.09 -1.12,-0.75 -2.69,-2.64 -3.2,-4.09 -0.77,-2.23 0.18,-4.93 -2.36,-4.93 -1.37,0 -0.52,1.55 -5.73,1.56 -3.94,0.01 -1.84,-0.33 -6.25,0.69 0.47,-2 3.16,-4.83 5.09,-5.84 0.41,-0.22 0.93,-0.4 1.24,-0.67 0.74,-0.65 1.42,-2.56 -1.5,-3.34 -1.28,-0.34 -1.84,-0.68 -2.81,-1.35l-4.79 -3.54c1.96,-0.16 3.35,-1.99 10.98,-0.74 1.44,0.24 2.89,0.82 4.11,0.92 0,0.68 -0.08,2.35 0.03,2.92 0.37,1.8 3.44,2.17 3.45,-0.82 0,-2.63 0.07,-5.12 0.72,-7.44 0.31,-1.12 1.28,-3.27 1.92,-4.15l1.38 -1.74c1.38,-1.57 2.07,-2 3.72,-3.39 2,-1.68 3.39,-3.4 5,-2.29 2.48,1.72 -1.54,4.07 -2.04,4.55 -2.34,2.28 -3.85,3.66 -5.29,7.03 -0.74,1.73 -1.61,4.35 -1.61,6.72zm42.34 26.63l0 3.71c-0.32,5.37 -2.02,10.68 -4.69,15.11 -3.41,5.66 -10.4,11.23 -16.36,14.18 -4.36,2.15 -5.63,2.92 -10.72,4.55 -2.61,0.84 -5.39,1.55 -8.14,1.92 -4.35,0.59 -4.78,0.6 -9.16,-0.02 -2.76,-0.39 -5.38,-1.18 -8.11,-1.95 -0.74,-0.21 -1.26,-0.4 -1.93,-0.67 -0.63,-0.25 -1.24,-0.42 -1.81,-0.62 -1.27,-0.46 -2.45,-1.05 -3.62,-1.58 -3.29,-1.48 -6.67,-3.39 -9.54,-5.56 -0.96,-0.73 -2.07,-1.41 -2.99,-2.22 -0.99,-0.87 -1.67,-1.49 -2.61,-2.43 -1.7,-1.7 -3.21,-3.53 -4.46,-5.6 -1.16,-1.93 -2.54,-4.58 -3.23,-7.01 -0.85,-3.01 -1.38,-6.15 -1.46,-9.29l0 -1.7c0.08,-3.22 0.66,-6.42 1.86,-9.46 0.39,-0.99 0.75,-1.74 1.14,-2.68 1.24,-2.95 3.91,-1.66 3.69,0.25 -0.07,0.58 -0.89,2.14 -1.11,2.67 -1.77,4.34 -1.42,5.6 -2.03,9.6 -0.18,1.2 0.04,2.31 0.1,3.57 0.05,1.05 0.32,2.39 0.5,3.31 1.26,6.29 4.26,10.53 8.39,14.69 2.47,2.49 5.83,4.59 8.88,6.39 5.98,3.54 12.89,5.92 19.81,6.92 3.1,0.45 3.7,0.37 6.7,-0.05 6.95,-0.97 13.99,-3.54 19.83,-7.07 4.67,-2.82 9.38,-6.03 12.45,-10.63 5.96,-8.91 6.93,-20.17 1.64,-29.66l-2.22 -3.5c-0.34,-0.46 -0.54,-0.63 -0.87,-1.04 -2.97,-3.68 -6.62,-6.28 -10.91,-8.18 -2.41,-1.07 -2.03,-0.56 -4.75,1.48 -0.53,0.4 -1.91,1.27 -2.18,1.64 0.56,0.83 1.36,1.32 2.01,2.15 2.19,2.81 5.84,10.51 2.15,10.51 -0.73,0 -1.81,-0.65 -2.49,-0.98 -5.27,-2.64 -5.55,-0.47 -11.22,-1.79 -0.19,2.29 -1.92,4.42 -3.31,5.88l-0.17 0.17c-1,0.96 -2.13,2.27 -3.63,2.27 -1.81,0 -6.51,-5.28 -6.77,-8.33 -4.48,1.04 -5.87,-0.14 -9.05,0.84 -1.11,0.35 -3.81,1.93 -4.49,1.93 -1.95,0 -1.92,-1.8 -1.6,-3.16 1.48,-6.31 4.28,-7.55 5.59,-9.51 -0.42,-0.57 -4.59,-3.4 -5.21,-3.82l-2.83 1.16c-1.25,0.53 -4.02,2.57 -4.98,2.58 -1,0.01 -1.73,-0.78 -1.73,-2.01 0,-1.41 2.68,-2.43 3.76,-3.01 0.55,-0.29 0.91,-0.53 1.45,-0.81 -0.86,-1.62 0.1,-2.57 1.67,-3.36 5.07,-2.55 10.04,-3.43 15.75,-2.27 1.15,0.23 2.58,0.74 3.57,0.77 0.4,-4.76 3.69,-9.68 7.39,-12.57 0.78,-0.61 1.42,-1.19 2.18,-1.81 1.39,-1.12 2.77,-2.8 5.18,-2.8 3.13,0 5.55,2.33 5.55,4.86 0,2.52 -0.99,3.81 -2.72,5.26l-2.51 2.18c-0.97,1.07 -2.38,2.61 -2.75,4.02 0.79,-0.02 1.4,-0.26 2.25,-0.35 3.65,-0.39 8.09,0.17 11.26,1.24 0.95,0.32 2.48,0.89 3.31,1.38 1.54,0.9 2.88,1.64 1.92,3.46 0.63,0.42 1.21,0.69 1.91,1.04 3.78,1.87 8.22,5.95 10.55,9.4 2.24,3.31 3.47,5.92 4.7,9.71 0.69,2.15 1.1,4.39 1.24,6.66z"/>
   <path class="fil0" d="M49.8 78.96c0,0.53 0.63,1.74 1.91,1.74 1.13,0 7.63,-2.34 9.2,-3.12 0.49,-0.24 0.91,-0.46 1.41,-0.67 2.44,-1 6.83,-3.92 9.02,-5.55 0.89,-0.66 1.88,-1.23 1.88,-2.45 0,-1.45 -1.81,-2.16 -3.25,-0.99 -2.04,1.65 -3.92,2.87 -6.19,4.22 -3.55,2.1 -7.89,3.72 -11.83,4.83 -1.08,0.3 -2.16,0.7 -2.16,2.01z"/>
   <path class="fil0" d="M7.64 30.89c0,3 3.64,1.96 3.64,0.35 0,-0.83 0.14,-1.26 -0.74,-1.87 -1.31,-0.91 -2.91,0.3 -2.91,1.52z"/>
   <path class="fil0" d="M41.99 80.17c0,2.04 3.64,2.95 3.64,-0.35 0,-1.73 -3.64,-1.97 -3.64,0.35z"/>
  </g>
 </g>
</svg>
