<?xml version="1.0" encoding="UTF-8"?>
<!DOCTYPE svg PUBLIC "-//W3C//DTD SVG 1.1//EN" "http://www.w3.org/Graphics/SVG/1.1/DTD/svg11.dtd">
<!-- Creator: CorelDRAW (Evaluation Version) -->
<svg xmlns="http://www.w3.org/2000/svg" xml:space="preserve" width="86.9523mm" height="104.289mm" version="1.1" style="shape-rendering:geometricPrecision; text-rendering:geometricPrecision; image-rendering:optimizeQuality; fill-rule:evenodd; clip-rule:evenodd"
viewBox="0 0 2375.52 2849.16"
 xmlns:xlink="http://www.w3.org/1999/xlink"
 xmlns:xodm="http://www.corel.com/coreldraw/odm/2003">
 <defs>
  <style type="text/css">
   <![CDATA[
    .fil0 {fill:white}
   ]]>
  </style>
 </defs>
 <g id="Layer_x0020_1">
  <metadata id="CorelCorpID_0Corel-Layer"/>
  <path class="fil0" d="M1641.92 148.14l-1366.43 1214.36c-34.37,31.02 -69.7,60.63 -104.56,90.82 -37.28,32.28 -64.76,60.89 -101.85,93.18 -31.01,26.99 -86.83,54.82 -63.53,106.96 159.28,31.11 917.36,-13.91 1001.25,25.52 13.56,54.95 -70.8,209.52 -96.9,267.41 -108.34,240.29 -254.62,553.93 -347.66,781.04 -14.61,33.96 -47.9,77.72 -29.22,112.99 28.1,33.22 92.56,-36.86 125.8,-67.98 99.11,-92.79 258.52,-219.15 346.79,-303.79 90.16,-86.44 257.96,-217.02 347.32,-303.35 104.4,-100.85 341.57,-297.36 466.28,-408.34l466.91 -407.86c55.68,-44.83 115.03,-83.3 77.75,-115.99 -48.52,-42.55 -1047.27,19.74 -1083.9,-21.52 -24.32,-35.63 34.16,-118.66 51.58,-152.2l228.35 -443.97c52.62,-98.57 100.2,-199.05 151.82,-295.92 21.84,-41 154.52,-274.09 135.5,-303.49 -33.76,-52.18 -104.96,35.74 -158.39,85 -16.21,14.95 -42.98,27.86 -46.92,47.13z"/>
 </g>
</svg>
