<?xml version="1.0" encoding="UTF-8"?>
<!DOCTYPE svg PUBLIC "-//W3C//DTD SVG 1.1//EN" "http://www.w3.org/Graphics/SVG/1.1/DTD/svg11.dtd">
<!-- Creator: CorelDRAW (Evaluation Version) -->
<svg xmlns="http://www.w3.org/2000/svg" xml:space="preserve" width="122.301mm" height="98.5299mm" version="1.1" style="shape-rendering:geometricPrecision; text-rendering:geometricPrecision; image-rendering:optimizeQuality; fill-rule:evenodd; clip-rule:evenodd"
viewBox="0 0 2887.3 2326.12"
 xmlns:xlink="http://www.w3.org/1999/xlink"
 xmlns:xodm="http://www.corel.com/coreldraw/odm/2003">
 <defs>
  <style type="text/css">
   <![CDATA[
    .fil20 {fill:#3D05DB}
    .fil14 {fill:#4205DE}
    .fil9 {fill:#4506E2}
    .fil5 {fill:#4608E1}
    .fil30 {fill:#4707E9}
    .fil10 {fill:#4908E6}
    .fil28 {fill:#4B05EA}
    .fil22 {fill:#4E0AE9}
    .fil7 {fill:#510AEA}
    .fil8 {fill:#540BEB}
    .fil2 {fill:#590DED}
    .fil29 {fill:#5D0DF1}
    .fil6 {fill:#5E10F2}
    .fil27 {fill:#6111F2}
    .fil31 {fill:#620EF3}
    .fil1 {fill:#6511F5}
    .fil11 {fill:#6A13F6}
    .fil18 {fill:#6C17F8}
    .fil21 {fill:#7316FA}
    .fil19 {fill:#741AFA}
    .fil13 {fill:#791CFC}
    .fil12 {fill:#7E1EFC}
    .fil25 {fill:#7E21FC}
    .fil24 {fill:#811EFC}
    .fil16 {fill:#8221FD}
    .fil17 {fill:#8522FD}
    .fil26 {fill:#8524FD}
    .fil4 {fill:#8924FD}
    .fil3 {fill:#8D23FD}
    .fil15 {fill:#8D2BFD}
    .fil23 {fill:#9026FE}
    .fil34 {fill:#A37CE9}
    .fil35 {fill:#AA72F2}
    .fil32 {fill:#B68AF4}
    .fil33 {fill:#C38AF9}
    .fil0 {fill:#FDFDFD}
   ]]>
  </style>
 </defs>
 <g id="Layer_x0020_1">
  <metadata id="CorelCorpID_0Corel-Layer"/>
  <path class="fil0" d="M2331.66 362.17l3.08 1001.89c-5.59,21.24 -8.14,909.01 -1.6,948.73l545.13 -0.03 9.02 -2230.28c-0.03,-9.99 0.29,-28.44 -0.82,-37.72 -1.38,-11.49 -1.3,-8.06 -3.6,-17.01 -7.17,-27.92 -90.48,-16.65 -137.96,-16.79 -65.75,-0.18 -396.07,-7.62 -409.45,5.22 -20.83,45.18 -0.59,273.92 -3.79,345.98z"/>
  <path class="fil1" d="M400.69 1163.25l0.31 9.5c12.75,31.68 -1.8,58.74 -4.55,96.98 18.62,8.94 9.52,9.66 24,-4.26 3.58,19.99 28.07,51.16 37.98,56.26 13.62,-16.05 -0.41,-4.87 24.96,-9.22l48.09 3.51c19.07,32.55 5.96,38.02 44.98,39.56l50.01 2c14.38,28.58 -3.08,15.52 19.37,24.78l39.17 -42.47 20.65 24.55c30.13,22.87 -1.22,-11.06 10.98,7.18l10.32 60.39 106.32 0.92c7.33,14.2 -1.61,4.78 5.18,25.01 51.81,21.5 28.5,-3.67 72.71,39.71 17.03,16.71 13.51,-5.81 16.43,27.32 29.2,-1.93 37.29,-7.55 45.1,-22.04l8.18 0c26.76,59.98 97.19,38.68 171.32,43.54 36.47,2.39 13.86,4.3 37.42,16.71 15.14,7.97 -0.7,1.54 19.81,2.35l6.29 0.62c27.91,3.06 77.27,-12.06 108.92,-22.8 5.6,-1.9 12.25,-2.98 14.88,-3.96 14.53,-5.41 15.19,-4.78 24.26,-21.04 0.93,-1.68 3.23,-6.87 4.03,-8.65 5.29,-11.83 4.75,-16.13 9.6,-26.47 12.62,23.83 -8.23,12.83 18.75,17.78 19.42,3.56 20.5,-3.7 29.33,-11.63 0.44,24.85 -1.41,19.93 6.67,36.96 1.03,-1.38 2.37,-5.38 2.76,-4.36 4.09,10.59 4.24,-7.07 4.95,-8.37 16.05,-29.32 -6.11,7.18 5.62,-11.05l10.83 24.58c33.87,-0.79 30.93,-1.95 61.41,13.62 0.89,0.46 2.81,1.38 4.2,2.11 31.99,-12.85 -13.8,-16.58 29.63,-16.35 36.35,0.19 4.86,6.22 31.37,18.04 20.64,-9.87 23.03,-28.87 51.38,-15 21.24,10.39 -11.69,1.77 16.29,13.74l70.48 -15.05c-11.08,-39.55 -0.38,1.09 18.18,-34.17 3.68,-6.99 6.99,-3.92 -3.48,-19.82 -25.43,-38.64 4.62,31.8 -7.18,-9.14 37.06,-5.98 9.26,-7.55 9.07,-28.41 18.19,-3.25 31.78,-12.09 48.88,-14.76l0 25.55c26.74,-5.46 21.07,-8.57 44.4,-18.46 10.07,-15.8 5.36,12.53 7.07,-22.56 1.73,-35.4 5.95,-4.3 -8.28,-25.59 -15.7,-23.47 -13.11,5.87 -15.68,-21.86 -2,1.08 -4,2.69 -5.64,3.84l-10.58 7.42c-1.71,1.23 -3.13,2.39 -4.68,3.52 -10.36,7.57 3.47,0.68 -12.8,9.56 1.65,-21.19 3.43,-28.87 -3.76,-45.7l-47.11 29.62c-36.22,34.83 2.37,-7.83 12.55,36.71 -62.76,-1.07 -31.13,10.06 -61.27,3.94 -6.54,-1.33 -16.11,-2.63 -21.62,-3.85 -27.91,-6.16 -30.46,-18.56 -52.72,-38.59l-8.48 -6.28c-6.18,12.95 -31.11,6.33 -49.36,44.15 1.23,-20.33 -0.37,-13.18 -5.45,-25.4 -53.87,1.47 -36.36,1.33 -76.48,-18.55l-8.65 -4.1c-39.42,-16.31 -20.81,0.51 -75.19,-29.34l-12.62 -5.64 -12.13 36.61c0.93,-2.27 20.88,5.06 -3.25,-5.58l-28.22 -0.66c8.09,-28.59 7.89,-12.78 -18.58,-40.12l-8.59 -10.88c6.39,35.7 19.99,57.62 23.87,92.95 -13.27,15.88 27.65,10.03 -21.48,14.22l-418.56 -0.4c-23.48,-2.52 -32.76,-9.14 -56.25,-12.03l14.31 -63.47c8.11,-31.39 -8.29,-22.67 23.17,-36.55 -7.51,-34.69 -9.38,-5.73 -17.95,-68.72 -31.64,-5.43 -69.6,0.55 -101.66,-3.14 -17.23,-1.98 -19.87,-4.54 -23.54,-5.34 -0.63,-0.13 -2.25,-0.48 -2.81,-0.58l-7.56 -0.56c-13.3,-3.54 -11.46,-8.27 -21.37,-17.95 -40.28,1.87 -5.02,17.02 -38.55,4.34l-23.93 -23.15c-7.54,15.11 -4.39,8.41 -12.49,17.62 -45.83,0.84 -36.47,-6.39 -56.09,-9.74 -18.59,-3.17 -20,5.73 -46.71,10.14l-47.13 -42.34c-3.38,8.65 -0.61,36.26 -29.53,27.71 -23.23,-6.87 -11.94,-19.31 -14.23,-40.41 -16.8,35.13 2.02,5.68 -20.22,20.92z"/>
  <path class="fil2" d="M327.23 1400.64c-10.7,0.05 -6.22,-1.89 -6.22,12.49 20.46,15.09 -14.9,34.57 44.34,49.56 32.83,8.3 -6.72,-20.37 18.55,7.44 13.75,15.13 -0.01,-7.16 8.65,15.15 16.54,-4.46 24.71,4.07 23.67,-16.48 1.87,27.26 2.51,28.12 17.84,43.72 15.3,15.58 17.32,12.33 22.47,27.48 18.58,-9.59 10.52,-10.55 30.86,-12.12l31.61 49.6c2.28,0.4 10.7,-12.8 50.21,30.49 2.89,3.16 -2.69,14.13 35.34,22.56l37.95 10.71c1.38,0.53 3.18,1.09 4.66,1.58 19.68,6.6 11.75,-1.35 31.6,12.17 41.55,28.29 -34.97,-9.6 10.79,8.62 31.78,6.03 37.07,-11.03 65.53,-3.15l128.44 34.08c13.22,8.82 28.06,20.74 32.12,34.38 4.03,13.51 3.79,0.64 -0.81,15.34 54.34,-1.55 21.55,17.63 62.1,23.11l16.48 -31.99c59.65,5.79 38.76,-9.43 58.88,-2.44 23.38,8.12 7.95,15.57 68.13,12.83l4.17 14.31c0.16,0.61 0.65,2.55 0.8,3.1l1.47 5.7c42.41,0.68 45.06,-13 62.85,-36.35 85.56,18.73 219.84,-40.51 282.14,-13.51l22.09 20.13 66.12 -24.46c20.1,-9.28 11.61,-9.96 18.9,1.36l114.28 5.79c17.72,-1.7 25.98,-12.48 72.55,-2.91 8.57,1.76 0.83,24.88 30.53,-11.16 2.85,-3.47 6.89,-9.12 8.48,-10.43 8.37,-6.94 -0.55,-5.36 15.52,-7.04 5.26,9.17 1.39,-4.91 -0.05,6.83l-2.02 11.73c1.45,0.89 3.94,0.17 4.55,2.32 1.65,5.84 5.4,2.88 7.84,5.05 13.4,11.96 -0.75,-7.91 7.39,9.3 -12.42,16.68 -17.1,7.94 -23.39,23.86l65.44 -10.62 5.13 -29.25c13.56,9.94 3.62,4.7 25.96,6.53 2.95,-36.21 -5.71,-25.16 15.32,-28.6 -8.73,-14.48 -14.66,-1.22 4.89,2.45 25.72,4.83 9.69,9.27 23.99,-1.87l-12.3 -40.39c-12.05,-10.84 -24.76,-54.32 -29.38,-81.95l-7.08 -24.67 -6.47 -5.11c-2.81,25.01 -4.59,21.26 -3.9,46.52 0.59,21.84 7.6,6.85 -0.99,36.86 -8.44,10.72 -39.15,10.26 -51.32,3.41 -16.67,-9.39 -1.02,9.48 -12.12,-11.12 -11.62,-21.57 9.33,-40.7 8.32,-34.9l-7.29 5.12c-8.68,-11.66 -3.56,-4.87 -27.06,-7.66 -12.22,20.29 -13.29,19.33 -27.79,21.55 -29.89,4.57 8.23,-17.85 -26.53,0.97 -6.59,3.57 -10.05,11.27 -31.87,17.46 -13.46,3.82 -27.36,4.83 -37.88,5.83 -64.72,6.1 -69.71,16.11 -102.44,4.74l-40.08 -12.43c-11.2,19.07 -29.09,38.39 -58.49,23.5 -25.16,-12.74 25.64,-15.47 -72.65,-12.16 -28.55,0.96 -59.79,2.76 -88.11,1.6l-46.06 -6.57c-33.52,-8.73 10.13,-7.32 -28.66,2.23l-196.85 4.51c-13.93,2.21 -20.89,10.73 -31.69,16.7 -16.21,-45.83 -26.3,-26.02 -95.83,-44.3 -33.3,-8.76 -21.74,-17.95 -48.98,-35.21 -1.39,-0.88 -9.01,-4.59 -10.41,-5.16l-21.28 -5.87c-36.93,-10.53 -48.2,5.1 -81.4,-6.22 -6.73,-2.29 -11.37,-6.13 -11.6,-6.25l-31.17 -13.27c-42.88,-21.95 -54.36,-22.41 -115.8,-24.11 -10.95,-19.59 -5.24,-16.43 -34.63,-32.71 -31.56,-17.48 -16.52,-1.22 -32.19,-34.32 -32.06,12.72 -45.01,-6.3 -45.94,-38.01 -10.47,12.64 -19.11,16.4 -33.3,9.1 -21.86,-11.24 2.12,-25.97 -23.88,-20.04 -14.97,3.42 0.51,6.11 -34.44,17.08l-33.19 4.85 -22.57 -0.04 -0.25 -50.67c10.67,9.86 -3.91,22.44 -12.58,43.73z"/>
  <path class="fil3" d="M1351.74 61.73c-1.51,1.66 -3.57,3.3 -4.94,4.57 -23.33,21.68 -25.8,19.03 -25.19,44.15 1.05,42.78 3.26,16.6 -12.73,40.61l-4.92 7.55c-6.49,10.3 1.89,14.2 -17.02,12.33 -40.36,-3.99 -17.97,7.44 -40.53,3.88l-8.05 -5.07c-0.3,-1.32 -1.7,-1.65 -3.45,-3.1l-4.83 25.35c-30.5,0 -31.15,-3.68 -54.33,8.94 -33.97,18.49 -11.15,20.8 -61.7,39.17 -68.34,24.83 -57.52,-11.42 -93.12,11.79 -28.45,18.55 -73.02,22.39 -87.74,-7.46 -5.05,16.58 -1.69,6.17 -7.26,18.25 -38.3,-1.14 -33.78,-6.66 -62.11,-4.58l-7.53 -35.81 -7.08 -5.85 -13.25 -12.4c-23.35,29.54 -17.46,-6.28 -32.56,35.41l-17.8 -17.23c-0.25,5.5 4.56,57.03 -24.42,48.19 -42.98,-13.1 19.8,-0.08 -15.42,-11.51 -0.35,0.69 -7.48,16.14 -7.72,16.45 -10.39,13.53 7.7,1.5 -13.28,11.12l-6.79 -19.45c-0.53,-4.08 -1.62,-4.9 -2.66,-7.26l-15.42 46.15c31.52,-4.11 -6.83,-11.12 9.48,2.42 0.79,0.65 3.03,1.53 3.94,2.49 0.97,1.02 2.29,2.42 3.27,3.74l10.4 24.04c5.24,-9.79 7.98,-16.79 12.53,-30.29 46.65,12.27 8.06,-0.78 40.63,20.93 19.18,12.79 22.69,0.1 36.55,13.84 0.68,0.68 9.38,13.84 9.55,14.18l5.03 13.91c0.5,1.21 -2.47,7.16 19.33,25.39 41.66,34.82 11.67,21.92 43.85,23.61 19.9,1.04 5.09,-13.05 26.23,14.37 0.85,-1.06 19.37,-5.13 7.01,-27.95 20.39,27.4 8.94,47.09 53.63,33.83l-12.49 31.6 37.12 -1.41c-8.94,18.27 -30.29,10.45 0.04,21.41 18.05,6.52 19.53,4.43 17.24,-18.53l14.94 22.25c2.28,2.42 8.74,7.67 10.05,8.99 20.77,-6.9 13.62,-9.41 24.99,-18.74 -0.71,19.02 -1.07,35.79 10.27,46.26 1.28,1.19 5.76,3.58 7.26,3.99 13.37,3.64 10.34,-4.58 29.84,-9.79 13.57,-3.63 26.32,2 39.61,-4.31 18.46,-8.75 10.32,-17.88 35.38,-25.49 16.81,14.52 8.52,-2.73 10.67,25.35 23.39,-5.35 20.09,0.68 22.4,-25.35 72.48,1.23 70.14,-11.13 87.74,-7.97 22.93,4.13 -21.17,8.67 28.68,1.72 0.83,-0.12 2.58,-0.81 3.37,-0.87l26.36 8.16c53.69,25.35 7.74,4.93 69.17,19.16 -1.41,-24.98 -0.63,-23.65 9.92,-46.73l9.98 -31.28c-0.38,-27.29 -10.3,6.43 -1.5,-52.17 3.17,-21.11 -3.51,-27.65 -2.21,-56.84 -21.84,-6.56 -8.63,-2.45 -15.85,-8.82 -0.82,-0.72 -2.17,-2.04 -2.89,-2.85 -13.33,-14.87 -2.79,-31.36 -21.26,-89.96 -2.46,-7.8 -2.41,-11.68 -5.29,-19.29 -9.53,-25.17 -17.75,-19.91 -26.74,-43.94 -5.24,-14.01 -3.94,-23.56 -7.44,-37.32 -3.72,-14.6 -1.02,-6.16 -7.32,-17.77l-21.63 -48.16z"/>
  <path class="fil4" d="M687.27 314c1.37,21.12 -42.93,144.87 -56.29,171.3 -10.56,36.02 -8.63,55.22 -8.23,96.95 30.94,-6.7 24.8,0.36 40.8,-12.51 14.4,-11.58 7.42,-6.58 12.54,-13.6 28.57,-39.13 -2.16,-36.34 46.59,-36.34 -8.85,-6.75 -30.98,-6.18 -10.63,-8.77 8.89,-20.26 0.14,-14.17 15.61,-28.79 30.48,-28.79 22.63,7.29 35.9,30.43l16.58 22.72c14.84,-26.48 23.78,-10.86 34.37,-36.55 24.14,32.82 -26.77,-29.48 10.3,10.83 6.91,7.51 5.28,4.08 11.58,13.22 28.97,-12.8 8.88,5.95 21.85,-24.37l22.36 23.98c39.46,-3.34 11.32,-0.84 30.13,-11.48l2.29 68.04 38.92 -11.82c14.34,37.95 -8.66,5.94 39.74,30.87 25.83,13.3 -16.71,-7.21 8.29,4.16l9.13 3.88c25.72,9.37 36.38,5.15 62.8,-12.02 -8.62,20.01 -10.05,20.91 -4.97,47.93l13.92 -23.87c17.21,19.29 15.71,29.33 23.71,55.57 9.66,31.68 6.66,39.14 23.54,54.59l4.99 -8.69c6.42,16.63 6.01,13.93 15.65,20.33 33.94,-33.92 16.03,-93.74 23.4,-137.44 32.04,-5.41 22.58,-4.31 47.97,4.44 20.83,7.18 28.39,7.53 53.57,9.6l4.66 28.75c21.67,18.75 28.73,23.09 54.67,38.42 16.7,-5.28 7.32,2.07 13.74,-12.81l22.53 0c7.29,16.1 3.73,8.33 32.45,30.62 26.59,-10.6 -4.88,3.41 14.98,-10.55 1.04,-0.73 2.61,-1.79 3.69,-2.56l24 -20.4c28.31,-27.71 18.84,-16.63 27.39,-15.1 14.12,2.51 35.85,17.14 58.02,15.51 6.31,-27.04 3.37,-35.82 5.89,-60.93 1.8,-17.98 5.95,-26.76 9.75,-44.06 -3.8,-19.11 -6.27,-45.76 -18.74,-56.23 -17.41,-37.86 -0.45,-5.07 -15.62,3.12 -3.29,-63.58 -26.34,-25.12 -33.7,-121.45 -2.17,-28.47 0.93,-4.93 -5.86,-27.96 -4.63,-15.68 -6.7,-33.82 -11.38,-31.16 -1.3,29.19 5.38,35.73 2.21,56.84 -8.8,58.6 1.12,24.88 1.5,52.17l-9.98 31.28c-10.55,23.08 -11.33,21.75 -9.92,46.73 -61.43,-14.23 -15.48,6.19 -69.17,-19.16l-26.36 -8.16c-0.8,0.07 -2.54,0.76 -3.37,0.87 -49.85,6.95 -5.75,2.4 -28.68,-1.72 -17.6,-3.17 -15.27,9.19 -87.74,7.97 -2.31,26.03 0.99,20 -22.4,25.35 -2.15,-28.08 6.15,-10.83 -10.67,-25.35 -25.06,7.6 -16.92,16.73 -35.38,25.49 -13.29,6.31 -26.03,0.68 -39.61,4.31 -19.5,5.21 -16.47,13.43 -29.84,9.79 -1.5,-0.41 -5.98,-2.8 -7.26,-3.99 -11.34,-10.48 -10.98,-27.25 -10.27,-46.26 -11.37,9.33 -4.22,11.84 -24.99,18.74 -1.3,-1.31 -7.77,-6.56 -10.05,-8.99l-14.94 -22.25c2.29,22.96 0.81,25.06 -17.24,18.53 -30.33,-10.96 -8.98,-3.14 -0.04,-21.41l-37.12 1.41 12.49 -31.6c-44.69,13.27 -33.24,-6.43 -53.63,-33.83 12.36,22.82 -6.16,26.89 -7.01,27.95 -21.14,-27.41 -6.33,-13.32 -26.23,-14.37 -32.18,-1.69 -2.2,11.21 -43.85,-23.61 -21.8,-18.23 -18.83,-24.18 -19.33,-25.39l-5.03 -13.91c-0.16,-0.34 -8.87,-13.5 -9.55,-14.18 -13.86,-13.73 -17.38,-1.05 -36.55,-13.84 -32.56,-21.71 6.02,-8.66 -40.63,-20.93 -4.55,13.5 -7.29,20.51 -12.53,30.29l-10.4 -24.04c-0.98,-1.32 -2.3,-2.72 -3.27,-3.74 -0.91,-0.96 -3.15,-1.83 -3.94,-2.49 -16.31,-13.54 22.04,-6.53 -9.48,-2.42l-12.66 8.09z"/>
  <path class="fil5" d="M2131.67 2250.54c7.62,18.87 18.87,29.6 21.42,49.73 -25.75,20.96 -68.78,15.24 -95.35,6.22 4.75,-30.63 7.43,-21.42 28.32,-35.33l12.88 -11.33c20.43,-11.91 1.55,-5.3 32.73,-9.29zm-106.23 2.89l-17.54 4.96c-48.55,7.02 -28.81,9.39 -50.11,14.31 -16.53,3.82 -26.5,2.55 -43.73,2.55 -9.59,-16.86 -17.28,-37.77 -74.12,-16.06 -14.26,5.45 9.23,3.61 -25.43,7.86 -54.34,6.66 -17.39,-16.35 -110.68,12.41l-33.41 8.28c4.98,-28.7 3.65,-28.63 -6.64,-42.39 -0.81,-1.08 -2.25,-2.2 -3.09,-3.26 -0.85,-1.06 -2.19,-2.25 -3.03,-3.33l-8.16 -11.61c-9.37,-16.18 -11.53,-16.06 -4.78,-34.41 11.09,-30.19 13.44,24.05 10.05,-30.98l32.02 7.14c23.38,-1.55 36.71,-31.91 73.64,-9.27 17.38,10.65 7.2,4.47 13.04,18.83l12.52 -12.5c35.39,0.64 38.04,2.08 49.95,27.06 1.54,-26.5 2.52,-7.29 14.4,-18.64l19.97 -20.4c1.42,1.39 3.08,1.85 3.7,4.67l14.39 20c4.6,6.39 7.94,8.93 13.15,16.47 18.83,-23.53 27.2,-23.94 55.53,-14.5 19.01,6.34 25.66,16.19 30.06,30.08l7.84 21.04c13.91,24.72 -9.97,20.7 30.48,21.67zm-500.35 -218.45c5.58,39.14 23.27,74.92 26.33,106.41l19.83 46.26c9.33,33.95 34.3,112.12 51.6,132.19 61.63,10.8 191.64,4.46 259.95,4.05 91.11,-0.55 182.25,0.17 273.32,-0.97 15.64,-6.77 9.89,-24.5 7.91,-38.77 -12.25,-24.13 -65.28,-176.45 -69.36,-202.5 -10.64,-22.61 -2.94,-5.86 -13.51,-14.16 -5.97,33.32 9.79,60.47 14.04,102.54 -31.9,1.34 -25.69,1.05 -41.35,-21.97 -8.78,30.8 -56.76,30.86 -41.07,-55.06l-34.78 -0.37c5.75,-36.86 2.71,-11.22 11.95,-35.99 -30.24,-18.67 -13.27,-16.96 -18.11,-55.43 -3.77,-29.99 1.27,-1.07 -10.77,-25.18 -7.35,-14.71 -0.38,11.24 -4.31,-11.26 -5.1,-29.21 -0.09,-7.42 2.32,-9.39 -20.39,0.22 -12.94,-1.58 -26.25,12.79 -9.86,10.64 -21.93,21.84 -39.69,24.11 -18.49,2.36 -3.36,-1.36 -30.02,-5.22 -53.89,-7.81 -60.12,4.21 -60.32,4.26l-6.44 0.69c-25.24,-1.63 0.87,-17.22 -59.33,1.5 -58.42,18.17 -66.63,26.82 -91.62,-7.08 -32.06,35.38 -1.66,29.41 -59.55,54.4 1.65,46.39 8.32,26.02 -9.2,59.51 -40.56,-35.04 -4.34,-73.9 -51.56,-65.35z"/>
  <path class="fil6" d="M362.63 1407.63l33.19 -4.85c34.95,-10.97 19.48,-13.66 34.44,-17.08 26,-5.93 2.02,8.8 23.88,20.04 14.19,7.3 22.84,3.54 33.3,-9.1 0.93,31.71 13.89,50.73 45.94,38.01 15.67,33.11 0.63,16.84 32.19,34.32 29.4,16.28 23.68,13.12 34.63,32.71 61.44,1.7 72.92,2.16 115.8,24.11l31.17 13.27c0.22,0.12 4.87,3.95 11.6,6.25 33.2,11.32 44.47,-4.32 81.4,6.22l21.28 5.87c1.4,0.56 9.02,4.28 10.41,5.16 27.24,17.26 15.68,26.46 48.98,35.21 69.52,18.28 79.61,-1.52 95.83,44.3 10.8,-5.97 17.77,-14.49 31.69,-16.7l196.85 -4.51c38.79,-9.55 -4.86,-10.96 28.66,-2.23l46.06 6.57c28.32,1.16 59.56,-0.64 88.11,-1.6 98.29,-3.31 47.49,-0.58 72.65,12.16 29.4,14.89 47.29,-4.43 58.49,-23.5l40.08 12.43c32.73,11.38 37.72,1.36 102.44,-4.74 10.52,-0.99 24.42,-2.01 37.88,-5.83 21.82,-6.19 25.27,-13.89 31.87,-17.46 34.75,-18.81 -3.36,3.6 26.53,-0.97 14.5,-2.22 15.58,-1.26 27.79,-21.55l-28.04 -1.41c6.25,-17.9 0.59,21.3 -30.57,-4.19 -2.01,-1.64 -7.05,-10.73 -8.08,-12.54 -13.72,5.31 -9.92,1.47 -15.35,12.21 1.82,-23.07 3.99,-20.25 -2.68,-39.96l-70.48 15.05c-27.97,-11.97 4.95,-3.34 -16.29,-13.74 -28.34,-13.87 -30.74,5.13 -51.38,15 -26.51,-11.82 4.98,-17.84 -31.37,-18.04 -43.43,-0.23 2.36,3.5 -29.63,16.35 -1.39,-0.72 -3.31,-1.65 -4.2,-2.11 -30.48,-15.57 -27.53,-14.41 -61.41,-13.62l-10.83 -24.58c-11.73,18.23 10.42,-18.27 -5.62,11.05 -0.71,1.3 -0.86,18.97 -4.95,8.37 -0.4,-1.03 -1.73,2.98 -2.76,4.36 -8.08,-17.02 -6.23,-12.11 -6.67,-36.96 -8.83,7.93 -9.91,15.19 -29.33,11.63 -26.98,-4.95 -6.13,6.06 -18.75,-17.78 -4.85,10.34 -4.32,14.64 -9.6,26.47 -0.8,1.78 -3.09,6.97 -4.03,8.65 -9.07,16.26 -9.73,15.63 -24.26,21.04 -2.63,0.98 -9.28,2.06 -14.88,3.96 -31.65,10.74 -81,25.86 -108.92,22.8l-6.29 -0.62c-20.52,-0.81 -4.68,5.62 -19.81,-2.35 -23.56,-12.41 -0.95,-14.33 -37.42,-16.71 -74.13,-4.86 -144.55,16.44 -171.32,-43.54l-8.18 0c-7.81,14.49 -15.9,20.11 -45.1,22.04 -2.93,-33.12 0.59,-10.61 -16.43,-27.32 -44.21,-43.38 -20.9,-18.21 -72.71,-39.71 -6.79,-20.24 2.14,-10.82 -5.18,-25.01l-106.32 -0.92 -10.32 -60.39c-12.2,-18.24 19.15,15.69 -10.98,-7.18l-20.65 -24.55 -39.17 42.47c-22.45,-9.25 -4.99,3.8 -19.37,-24.78l-50.01 -2c-39.01,-1.55 -25.91,-7.01 -44.98,-39.56l-48.09 -3.51c0.81,1.92 0.7,5.73 1.04,6.68l18.02 18.36c26.38,26.12 0.86,4.32 44.42,19.5l-4.74 44.23c-40.12,0.79 -10.58,4.94 -34.16,-16.18l-12.41 -9.18c-19.71,-22.15 6.83,-14.39 -17.76,-24.62 -5.59,12.54 13.5,14.51 -17.55,10.12 -27.44,-3.88 -11.53,-4.42 -16.17,-14.5l-17.68 9.1c-23.61,13.74 -15.55,-0.66 -17.93,26.34l-46.38 0.78 0.56 24.47z"/>
  <path class="fil7" d="M249.59 1567.54l-6.41 24.63c-9.59,44.72 -26.03,67.54 -37.92,117.56 -11.29,47.5 -21.6,68.01 -39.68,103.3l-1.14 18.68c4.15,-1.36 14.23,-2.2 19.07,-6.25 0.09,-18.17 1.6,-32.61 8.68,-47.35 11.23,-23.35 11.93,-13.61 18.56,-29.51 12.6,-30.25 -7.93,-11.58 23.5,-58.75l6.84 -11.62c-0.71,41.06 -8.1,5.62 29.53,22.9 17.01,7.81 23.58,12.95 46.62,14.44 0.53,-44.72 -1.39,-10.91 8.11,-23.83l9.84 -10.23c14.34,-26.79 -20.89,11.79 10.77,-20.24 8.17,20.94 13.93,10.04 27.39,30.64l18.74 -24.99c0.49,1.47 6.07,60.32 59.91,59.91 25.71,-0.2 6.48,-2.88 31.4,-10.82 24.73,54.91 28.67,40.49 30.05,86.28 34.87,15.95 14.9,-4.72 31.09,30.79 69.03,0.78 19.93,12.73 69.77,19.26 5.76,0.75 18.88,0.08 25.27,0.08l6.8 -6.88c0.92,-0.89 2.46,-2.27 3.47,-3.26 30.31,-29.59 17.03,5.18 20.64,-35.85 22.63,14.5 20.81,-1.69 35.19,-8.83 44.07,-21.9 189.03,-0.14 246.26,-2.53l406.07 1.18c13.86,0.94 79.36,6.84 87.49,-1.95 -111.32,0 -679.86,-12.03 -736.43,8.02 -9.06,25.05 -24.12,72.99 -19.51,92.98l27.76 -83.02c34.22,-13.1 565.12,-7.74 691.24,-6.61 30.47,0.27 30.3,-6.44 38.81,15.45l1.22 12.51c13.69,13.83 5.47,7.02 13.35,24.28 7.47,16.35 -1.6,0.19 6.32,13.52 5.76,9.71 3.4,6.28 9.59,12.82l4.5 -27.82c1.6,-6.69 4.84,-14.65 6.86,-27.16 16.01,7.68 12.44,2.33 16.26,18.74 6.56,-41.75 6.23,3.55 29.37,-37.48l50.23 25.96c20.86,10.64 147.07,9.63 179.47,13.68 37.15,4.64 14.22,2.77 25.78,11.51 18.81,14.21 32.25,11.77 71.07,18.9 18.57,3.41 29.19,-0.8 44.84,-3.39 1.29,-0.21 3.23,-0.7 4.45,-0.82l15.86 5.37c-5.37,-27.09 17.32,-45.66 37.45,-61.85 7.63,15.18 7.34,19.41 13.83,37.15 5.05,13.82 13.06,25.58 13.68,27.22 18.69,-42.52 -20.51,-13.08 13.8,-38.36l-26.65 -80.03 -17.19 3.42c7.52,23.27 10.15,14.53 0.28,38.08 -19.77,-8.88 4.87,-24.71 -46.62,-1.62l-31.8 13.46c-9.53,3.01 -24.46,5.79 -26.04,5.74 -14.44,-0.45 0.37,-4.26 -30.23,-5.77 -32.39,-1.59 -4.79,6.48 -34.8,-7.56 -29.73,-13.91 -8.8,-0.71 -34.41,-25.03 -39.55,2.09 -92.05,7.18 -129.3,-4.73l-47.77 -9.92c-40.15,-1.28 -55.3,26.65 -117.97,16.39 -40.2,-6.58 -17.48,8.19 -29.82,-16.21l-5.21 5.77c-0.71,0.67 -2.04,2.22 -2.89,2.95 -28.74,24.54 -66.73,10.32 -116.84,9.28 -46.1,-0.96 -95.31,4.16 -143.68,4.14 -89.5,-0.04 -200.51,5.81 -287.34,-2.26 16.37,-56.56 10.91,-73.85 -67.45,-95.82 -51.79,-14.52 -102.35,3.89 -121.41,4.75 -1.27,0.06 -3.24,-0.04 -4.45,-0.1 -55.23,-2.37 23.45,-6.84 -44.12,5.97l-10.58 -14.09c-18.85,-24.21 6.98,4.28 -3.78,-5.32 -17.84,-15.92 26.29,2.41 -17.89,-1.75 -0.73,-0.07 -2.6,-0.66 -3.33,-0.7l-21.83 6.5c-0.8,-1.55 -3.27,2.12 -5.07,2.87 -55.87,-43.95 -43.7,-16.43 -43.7,-56.22 -20.11,18.97 -25.49,-0.07 -27.42,-0.98 -15.24,-7.16 -52.5,-50.23 -60.04,-61.49 0.4,0.66 0.21,2.05 0.18,2.33l-18.96 39.14 -10.04 -11.22c-14.68,-11.45 -51.62,-8.92 -71.17,-10.92 -17.04,21.2 -5.04,24.39 -39.68,22.18 -0.96,-0.06 -2.82,-0.51 -3.71,-0.56l-22.87 0.35c-0.8,-0.15 -3.66,-0.02 -4.25,-1.69 -0.64,-1.8 -3.25,-1 -4.43,-2.14l11.53 -76.37c0.5,-1.1 1.53,-2.58 2.1,-3.61 30.38,-54.67 38.96,-31 36.35,-119.93 0,-14.38 -4.48,-12.44 6.22,-12.49l-11.59 -6.22c-6.59,31.39 -36.33,91.89 -50.36,136.76 -1.74,5.56 -5.82,20.25 -7.49,24.16l-3.82 7.06c-0.3,0.55 -1.93,3.48 -2.16,2.7 -0.21,-0.75 -1.32,1.82 -2.24,2.43z"/>
  <path class="fil8" d="M1978.65 1765.84l-7.39 -34.03 -15.9 -43.77c-14.3,11.14 1.74,6.7 -23.99,1.87 -19.55,-3.67 -13.62,-16.93 -4.89,-2.45 -21.03,3.44 -12.37,-7.61 -15.32,28.6 -22.35,-1.83 -12.41,3.41 -25.96,-6.53l-5.13 29.25 -65.44 10.62c6.29,-15.91 10.97,-7.18 23.39,-23.86 -8.14,-17.21 6.01,2.67 -7.39,-9.3 -2.43,-2.17 -6.19,0.79 -7.84,-5.05 -0.61,-2.15 -3.1,-1.43 -4.55,-2.32l2.02 -11.73c1.44,-11.74 5.31,2.34 0.05,-6.83 -16.06,1.67 -7.15,0.09 -15.52,7.04 -1.58,1.31 -5.62,6.97 -8.48,10.43 -29.7,36.04 -21.96,12.92 -30.53,11.16 -46.57,-9.57 -54.83,1.21 -72.55,2.91l-114.28 -5.79c-7.29,-11.31 1.2,-10.64 -18.9,-1.36l-66.12 24.46 -22.09 -20.13c-62.31,-27.01 -196.59,32.23 -282.14,13.51 -17.79,23.35 -20.44,37.03 -62.85,36.35l-1.47 -5.7c-0.15,-0.55 -0.64,-2.49 -0.8,-3.1l-4.17 -14.31c-60.19,2.74 -44.75,-4.71 -68.13,-12.83 -20.12,-6.99 0.77,8.23 -58.88,2.44l-16.48 31.99c-40.55,-5.48 -7.75,-24.65 -62.1,-23.11 4.61,-14.7 4.84,-1.83 0.81,-15.34 -4.07,-13.64 -18.9,-25.55 -32.12,-34.38l-128.44 -34.08c-28.46,-7.89 -33.76,9.18 -65.53,3.15 -45.76,-18.23 30.76,19.67 -10.79,-8.62 -19.85,-13.52 -11.92,-5.56 -31.6,-12.17 -1.48,-0.5 -3.29,-1.06 -4.66,-1.58l-37.95 -10.71c-38.04,-8.43 -32.45,-19.4 -35.34,-22.56 -39.51,-43.3 -47.93,-30.09 -50.21,-30.49l-31.61 -49.6c-20.34,1.57 -12.28,2.52 -30.86,12.12 -5.15,-15.16 -7.17,-11.91 -22.47,-27.48 -15.33,-15.6 -15.97,-16.46 -17.84,-43.72 1.04,20.55 -7.13,12.02 -23.67,16.48 -8.66,-22.31 5.09,-0.02 -8.65,-15.15 -25.27,-27.8 14.28,0.87 -18.55,-7.44 -59.25,-14.98 -23.88,-34.47 -44.34,-49.56 2.61,88.93 -5.97,65.26 -36.35,119.93 -0.57,1.03 -1.6,2.51 -2.1,3.61l-11.53 76.37c1.17,1.14 3.78,0.34 4.43,2.14 0.6,1.67 3.45,1.54 4.25,1.69l22.87 -0.35c0.89,0.04 2.74,0.5 3.71,0.56 34.64,2.21 22.64,-0.99 39.68,-22.18 19.56,2 56.49,-0.53 71.17,10.92l10.04 11.22 18.96 -39.14c0.03,-0.27 0.22,-1.66 -0.18,-2.33 7.54,11.27 44.8,54.33 60.04,61.49 1.93,0.91 7.3,19.95 27.42,0.98 0,39.8 -12.17,12.27 43.7,56.22 1.79,-0.75 4.26,-4.42 5.07,-2.87l21.83 -6.5c0.73,0.04 2.6,0.63 3.33,0.7 44.18,4.16 0.05,-14.17 17.89,1.75 10.76,9.6 -15.07,-18.89 3.78,5.32l10.58 14.09c67.57,-12.81 -11.11,-8.34 44.12,-5.97 1.21,0.05 3.18,0.16 4.45,0.1 19.06,-0.86 69.61,-19.27 121.41,-4.75 78.36,21.97 83.82,39.27 67.45,95.82 86.83,8.07 197.84,2.22 287.34,2.26 48.38,0.02 97.58,-5.1 143.68,-4.14 50.11,1.04 88.1,15.27 116.84,-9.28 0.86,-0.73 2.18,-2.28 2.89,-2.95l5.21 -5.77c12.34,24.41 -10.38,9.63 29.82,16.21 62.66,10.26 77.81,-17.67 117.97,-16.39l47.77 9.92c37.25,11.91 89.75,6.82 129.3,4.73 25.61,24.32 4.68,11.11 34.41,25.03 30.01,14.04 2.42,5.97 34.8,7.56 30.6,1.51 15.8,5.31 30.23,5.77 1.58,0.05 16.51,-2.72 26.04,-5.74l31.8 -13.46c51.49,-23.09 26.84,-7.26 46.62,1.62 9.87,-23.55 7.24,-14.81 -0.28,-38.08l17.19 -3.42z"/>
  <path class="fil9" d="M150.16 1875.87l-8.07 8.99 -3.98 28.32c17.05,11.29 14.17,-17.64 14.17,30.97 -7.49,6 -35.72,96.07 -31.21,113.68 29.91,7.33 30.07,-26.87 31.2,-31.57 7.11,-29.4 5.5,-24.7 19.67,-14.76l17.53 13.48c19.41,13.93 19.13,8.07 26.02,37.18 72.5,-4.8 34.05,6.2 89.85,-13.93 0,28.82 -1.48,30.52 15.8,52.46 0.76,0.97 2.31,2.22 3,3.18 2.49,3.45 22.29,-7.18 2.69,21.57 -11.43,16.77 -13.05,9.6 -18.38,6.18 19.14,15.84 2.31,-1.46 17.78,21.03l7.26 11.6c0.6,1.02 6.07,10.9 6.2,11.1 17.48,-24.44 38.82,-4.71 39.1,-4.62 31.77,9.78 20.96,7.8 52.69,0.66 32.07,-7.22 12.68,8.73 90.13,33.73 -1.06,73.18 -2.85,55.1 -25.19,59.95 -47.9,10.4 -182.35,29.32 -226.66,25.9 -16.6,3.67 -39.99,0.01 -55.03,9.29 53.42,2.93 112.8,2.7 168.73,6 43.08,2.54 136.37,14.03 152.62,-25.92 7.85,-19.32 14.71,-43.94 23.48,-66.04l65.14 -176.54c14.45,-18.67 -6.33,-3.43 18.09,-14.32 14.07,-5.85 7.32,-8.05 15.17,-30.18 4.84,-13.65 7.58,-17.95 12.96,-30.37 -21.36,-21.08 -3.92,-7.53 -25.04,-12.43 -9.58,24.87 -25.68,65.59 -30.53,97 -36.41,-20.74 -5.22,-25.23 -39.2,-26.22 -29.91,-0.88 -22.79,13.19 -42.79,-9.52 -40.18,-5.53 -4.63,1.84 -20,-17l-12.93 -35.62c-74.44,-10.36 -18.84,2.78 -53.81,-26.72 -6.74,16.22 2.42,11.36 -24.99,17.36 -15.41,-13.69 -11.8,-16.88 -25.33,-37.14 -26.68,0.75 -24.67,6.98 -39.01,0.67 -18.33,-8.07 19.56,-12.54 -30.06,-11.43 -25.61,9.74 3.81,-2.3 -15.48,14.4 -11.18,9.67 5.49,7.36 -37.39,12.97 -10.14,1.33 -0.72,16.33 -13.64,-11.79 -24.65,-53.68 -28.24,6.26 -28.24,-59.31 -9.14,19.55 3,15.12 -30.26,24.34 -12.26,3.4 -12.27,0.38 -23.89,-3.87 -5.13,46.72 3.15,33.85 -13.53,41.66 -5.63,-11.18 2.88,-30.28 6.22,-44.77 -4.19,-2.03 -7.95,-9.66 -20.86,0.41z"/>
  <path class="fil10" d="M164.44 1831.7l-14.28 44.17c12.9,-10.07 16.66,-2.43 20.86,-0.41 -3.33,14.49 -11.84,33.59 -6.22,44.77 16.68,-7.81 8.4,5.06 13.53,-41.66 11.62,4.25 11.63,7.27 23.89,3.87 33.26,-9.22 21.12,-4.79 30.26,-24.34 0,65.56 3.59,5.63 28.24,59.31 12.91,28.12 3.5,13.12 13.64,11.79 42.88,-5.61 26.21,-3.3 37.39,-12.97 19.29,-16.7 -10.14,-4.66 15.48,-14.4 49.62,-1.1 11.73,3.36 30.06,11.43 14.34,6.31 12.33,0.08 39.01,-0.67 13.53,20.25 9.92,23.45 25.33,37.14 27.41,-6 18.25,-1.14 24.99,-17.36 34.97,29.49 -20.63,16.35 53.81,26.72l12.93 35.62c15.37,18.84 -20.18,11.46 20,17 -7.65,-17.72 -4.85,-2.81 -0.63,-21.12l6.88 -27.65 -32.5 -30.26c7.63,28.11 -6.18,15.16 32.53,15.13l6.21 -16.95c7.77,-20.64 5.73,-14.66 19.21,-23.75 -6.95,-25.26 -6.93,-8.56 -13.35,-31.24 21.6,11.77 21.8,27.78 46.09,19.72 24.24,-8.04 23.52,-22.37 25.23,-26.65l4.08 -10.28c27.57,3.79 32.4,12.72 41.16,23.03l-22.39 68.75c21.12,4.9 3.68,-8.64 25.04,12.43l18.66 -67.61c-4.6,-19.98 10.45,-67.92 19.51,-92.98 56.57,-20.05 625.11,-8.02 736.43,-8.02 -8.13,8.79 -73.63,2.89 -87.49,1.95l-406.07 -1.18c-57.23,2.39 -202.19,-19.38 -246.26,2.53 -14.38,7.15 -12.56,23.33 -35.19,8.83 -3.6,41.03 9.67,6.26 -20.64,35.85 -1.01,0.99 -2.55,2.36 -3.47,3.26l-6.8 6.88c-6.39,0 -19.51,0.68 -25.27,-0.08 -49.85,-6.53 -0.74,-18.48 -69.77,-19.26 -16.19,-35.51 3.78,-14.84 -31.09,-30.79 -1.39,-45.79 -5.32,-31.36 -30.05,-86.28 -24.92,7.94 -5.69,10.62 -31.4,10.82 -53.84,0.41 -59.42,-58.44 -59.91,-59.91l-18.74 24.99c-13.46,-20.6 -19.22,-9.71 -27.39,-30.64 -31.66,32.03 3.57,-6.55 -10.77,20.24l-9.84 10.23c-9.5,12.91 -7.58,-20.89 -8.11,23.83 -23.04,-1.49 -29.61,-6.63 -46.62,-14.44 -37.62,-17.28 -30.23,18.16 -29.53,-22.9l-6.84 11.62c-31.43,47.18 -10.9,28.51 -23.5,58.75 -6.63,15.9 -7.33,6.16 -18.56,29.51 -7.08,14.74 -8.6,29.18 -8.68,47.35 -4.84,4.04 -14.92,4.88 -19.07,6.25z"/>
  <path class="fil11" d="M1744.9 1122.45c-4.92,47.83 -8.02,87.15 -32.61,101.69 -12.7,7.51 -5.26,8.13 -28.93,7.1 -35.41,-1.54 1.04,-12.12 -144.17,-10.57 -6.96,9.16 -7.39,12.97 -12.79,23.35 -65.82,-34.52 0.05,17.59 -99.66,-18.72 -10.5,-3.82 15.99,-7.84 -31.69,-1.53 -17.47,2.31 -0.47,1.6 -13.23,0.23 -41.3,-4.42 -46.12,13.22 -66.62,21.35 -21.16,8.39 -7.66,0.38 -19.67,-0.83l-3.68 30.83 -4.89 16.55c9.21,5.31 8.89,2.25 12.47,7.82l8.59 10.88c26.47,27.35 26.67,11.53 18.58,40.12l28.22 0.66c24.13,10.64 4.19,3.31 3.25,5.58l12.13 -36.61 12.62 5.64c54.39,29.85 35.77,13.03 75.19,29.34l8.65 4.1c40.12,19.88 22.61,20.02 76.48,18.55 5.08,12.22 6.68,5.07 5.45,25.4 18.24,-37.81 43.17,-31.2 49.36,-44.15l8.48 6.28c22.27,20.02 24.82,32.42 52.72,38.59 5.52,1.22 15.08,2.52 21.62,3.85 30.14,6.11 -1.48,-5.01 61.27,-3.94 -10.18,-44.54 -48.77,-1.88 -12.55,-36.71l47.11 -29.62c7.19,16.83 5.41,24.51 3.76,45.7 16.26,-8.88 2.43,-1.98 12.8,-9.56 1.55,-1.13 2.97,-2.28 4.68,-3.52l10.58 -7.42c1.63,-1.15 3.63,-2.76 5.64,-3.84 2.57,27.73 -0.02,-1.61 15.68,21.86 14.24,21.29 10.01,-9.81 8.28,25.59 -1.71,35.09 3,6.76 -7.07,22.56 -3.7,20.23 -2.59,7.31 8.09,14.21 5.35,11.26 -3.22,12.57 12.56,-16.35 4.63,28.59 14.71,50.33 27.98,73.58l8.71 14.15c1.25,1.87 2.8,3.79 3.88,5.36 1.14,1.65 2.55,3.88 4.12,5.59 -5.51,-43.44 -23.63,-70.85 -34.33,-112.39 -20.08,-48.61 -58.42,-136.11 -68.27,-196.97l-38.13 -96.71c-0.48,6.9 -0.12,2.99 -10.64,2.93z"/>
  <path class="fil12" d="M525.57 804.1c-7.88,9.12 -14.35,32.76 -15.92,54.05l19.85 5.27c-4.73,18.22 -13.72,27.15 -1.92,43.91 3.31,4.7 7.76,3.14 8.56,2.5 0.37,-0.3 1.43,-1.78 1.79,-2.26l7.95 -17.52 20.41 8.58c1.36,0.7 2.96,1.78 4.27,2.47 7.83,4.12 11.55,9.6 18.97,4.84l12.57 -15.15 26.79 19.32c26.8,11.64 10.49,-12.62 23.19,23.76 13.93,-9.32 16.93,-20.82 35.52,12.71l25.33 -13.74c1.96,-0.55 13.1,-4.07 18.4,-5.01 -4.12,22.03 -19.56,25.29 7.53,67.43 -5.25,-16.33 4.59,-12.97 30.16,-17.67 3.22,7.95 5.33,17.1 7.99,23.92 13.51,-24.3 -1.75,-2.43 22.76,-16.53l19.95 -7.8c0.94,-0.06 2.9,0.3 3.8,0.32 19.38,0.61 -0.47,7.76 18.79,-0.04l28.41 -18.19c2.1,2.39 12.84,31.71 40.32,11.41l6.02 -5.68c13.38,-9.9 23.76,-8.15 25.63,-7.24 -0.08,-3.48 -2.87,-18.65 -2.59,-20.54 5.16,-33.72 -11.74,24.07 2.35,-8.9 5.9,-13.8 -0.84,-3.68 9.48,-13.01 19.41,26.69 2.45,53.7 5.17,82.57l22.26 -22.72c-0.5,-7.38 43.77,-163.77 57.04,-178.82 0.75,-9.77 1.86,-19.59 0.53,-33.21 -7.96,-34.18 6.54,-40.08 10.29,-82.35 -20.16,9.73 -9.48,11.91 -20.75,50.25 -4.27,14.52 -5.76,16.1 -12.05,27.51l-26.94 40.63c-11.4,15.43 -5.08,-2.86 -12.4,22.85 -6.98,24.51 1.41,31.59 -23.15,42.59 -9.81,-17.65 -6.39,-31.9 -28.22,-33.68 -40.43,-3.31 -17.34,-1.31 -38.52,-25.77l-9.72 -9.35c-10.71,-9.73 -0.27,3.23 -10.05,-8.35l-30.76 18.26c-4.12,-30.09 1.04,-18.52 -28.69,-14.92 -15.87,1.92 -33.66,1.74 -41.55,1.36 -5.63,-0.26 -65.14,0.39 -71.24,-1.28 -9.31,-2.55 -21.25,-12.06 -36.39,-14.1 -53.5,-7.21 -35.27,29.82 -106.72,24.39l-7.4 6.25 -17.14 -3.35z"/>
  <path class="fil13" d="M1476.75 965.97c-7.37,-0.37 -37.5,0.85 -43.6,1.36 -22.59,1.91 -13.66,5.29 -35.16,22.31l-1.24 18.7c-18.01,-6.47 -13.74,-13.11 -24.37,-18.12 -16.86,25.18 -23.67,34.7 -44.87,43.76l-15.07 5.62c-16.86,2.5 7.58,-7.79 -25.31,6.19l-4.07 -29.04c-8.92,23.15 7.32,15.62 -24.04,30.48 -0.74,0.35 -2.64,0.84 -3.33,1.16 -27.52,12.71 3.96,-13.78 -10.76,6.78 -14.46,15.96 2.18,30.41 -5.6,58.72 11.56,35.98 44.07,127.3 41.39,161.46l11.12 0 3.68 -30.83c-11.07,-8.21 -8.06,-24.2 -8.95,-42.09l10.56 10.83c3.6,-24.43 -0.1,-15.11 13.11,-29.28 15.52,-16.66 -1.22,-10.09 30.87,-12.29l10.66 -33.88c69.3,-2.44 22.81,3.86 53.45,-7.83 20.99,-8.01 82.37,-9.37 112.34,-0.86 21.45,6.09 -1.97,13.99 34.16,3.53 32.85,-9.51 56.28,-7.64 108.77,-17.19l12.69 0.66c0.23,-6.11 -0.57,-9.45 1.11,-15.79 4.6,-17.32 -11.07,5.77 8.57,-18.91 30.19,0.29 10.69,-0.73 18.09,-6.25l7.44 12.98c7.51,12.29 -4.11,-2.55 9.52,14.79 1.13,-1.39 15.98,18.68 5.84,-27.14 -4.36,-19.71 -1.12,-4.87 -10.66,-17.17 -33.16,-42.77 -33.6,-84.17 -55.22,-97.29l-2.44 13.45c-0.15,0.96 -0.2,3.04 -0.37,3.94 -4.16,22.25 1,5.26 -6.12,11.66l-19.3 25.78c-11.46,-14.38 -14.41,-22.83 -26.22,-26.83 -0.76,-0.26 -2.83,-0.49 -3.52,-0.65 -3.8,-0.9 -4.23,6.86 -6.52,-0.36 -0.34,-1.06 -2.12,0.44 -3.05,0.04 2.8,-8.1 10.51,-25.71 -1.74,-29.93 -13.55,-4.66 9.81,10.05 -31.76,1.05 -14.27,-3.09 15.52,-12.42 -25.72,2.52 -24.49,8.87 -28.29,5.94 -54.37,3.97z"/>
  <path class="fil14" d="M115.28 1962.95c-6.84,39.03 -35.73,111.15 -52.63,146.69 -13.27,23.09 -16.68,17.08 -1.13,46.21 -32.08,5.95 -0.54,-9.03 9.57,23.8 24.4,-6.75 10.1,-10.6 43.15,-15.33l10.67 38.4c20.17,-1.77 28.25,-2.94 44.7,2.78 19.43,6.76 24.09,5.01 22.95,28.82 14.16,-17.55 -5.36,-3.91 39.98,-17.91 12.02,-3.71 -8.05,-1.52 23.19,-7.08 37.23,51.21 20.32,-2.74 71.04,41.53l23.8 16.52 -181.57 16.91 100.75 6.67c44.32,3.42 178.77,-15.5 226.66,-25.9 22.34,-4.85 24.13,13.23 25.19,-59.95 -77.45,-25 -58.06,-40.95 -90.13,-33.73 -31.73,7.14 -20.92,9.12 -52.69,-0.66 -0.28,-0.09 -21.62,-19.82 -39.1,4.62 -0.13,-0.2 -5.59,-10.09 -6.2,-11.1l-7.26 -11.6c-15.47,-22.49 1.36,-5.19 -17.78,-21.03 5.33,3.42 6.95,10.59 18.38,-6.18 19.6,-28.75 -0.21,-18.12 -2.69,-21.57 -0.69,-0.96 -2.24,-2.22 -3,-3.18 -17.28,-21.94 -15.8,-23.64 -15.8,-52.46 -55.81,20.13 -17.35,9.13 -89.85,13.93 -6.9,-29.11 -6.61,-23.25 -26.02,-37.18l-17.53 -13.48c-14.16,-9.94 -12.56,-14.64 -19.67,14.76 -1.14,4.69 -1.29,38.89 -31.2,31.57 -4.52,-17.61 23.71,-107.68 31.21,-113.68 0,-48.61 2.89,-19.68 -14.17,-30.97l-22.83 49.77z"/>
  <path class="fil15" d="M849.23 216.44l7.08 5.85 12.52 -10.06c6.99,-8.7 1.79,3.31 6.74,-12.43 30.14,6.68 12.76,11.2 32.65,10.87 27.8,-0.45 12.11,-31.68 67.1,10.72 18.55,14.3 -17.79,-2.16 7.88,6.09 26.4,-10.69 -10.96,10.03 7.82,-6.52l6.14 -5.43c0.88,-0.8 2.32,-2.13 3.22,-2.98 12.92,-12.11 11.08,-12.45 21.34,-22.37 16.98,-16.4 17.89,-15.62 30.49,-16.17 31.17,-1.34 3.72,1.04 30.94,11.15 19.26,-24.3 29.8,-19.33 36.12,-19.51 25.74,-0.72 -8.18,10.59 35.83,-8.18 -10.53,-31.11 -3.58,11.03 -23.21,-25.7 30.46,-2.39 12.64,2.41 27.72,-16.44l8.03 -10.95c11.29,-11.67 26.07,-19.71 43.43,-17.34 23.02,3.14 -5.07,13.84 25.87,-0.11 16.38,-7.38 19.72,-14.01 27.1,-16.94 24.53,-9.72 -1.85,16.94 29.48,-8.07 34.88,-27.85 27.65,-11.55 58.23,-0.21l21.63 48.16c6.3,11.62 3.6,3.18 7.32,17.77 3.51,13.76 2.2,23.31 7.44,37.32 8.99,24.03 17.21,18.77 26.74,43.94 2.88,7.61 2.83,11.49 5.29,19.29 18.47,58.6 7.93,75.09 21.26,89.96 0.72,0.81 2.07,2.12 2.89,2.85 7.21,6.37 -6,2.26 15.85,8.82 4.67,-2.67 6.75,15.48 11.38,31.16 6.8,23.03 3.69,-0.5 5.86,27.96 7.35,96.33 30.41,57.87 33.7,121.45 15.16,-8.19 -1.79,-40.98 15.62,-3.12 12.47,10.46 14.94,37.11 18.74,56.23l6.22 6.25c0.01,2.08 0.89,5.21 1.47,6.11 11.36,17.56 8,13.26 22.18,18.88 -11.21,-43.49 -35.93,-81.81 -41.19,-132.04 -13.32,-5.43 -101.47,-266.18 -99.24,-285.24 -22.14,-26 -37.89,-114.49 -57.15,-132.48 -46.55,-34.26 -12.35,-31.44 -113.44,-31.18l-418.53 0c20.49,25.45 -12.56,17.52 74.96,18.55 28.99,0.34 31.09,6.37 62.82,6.37 -13.04,-11.61 -6.83,-8.27 -22.1,1.58 -8.76,5.65 -20.76,16.95 -0.64,20.59 1.16,0.21 3.39,0.9 4.87,1.11 1.59,0.22 3.46,0.52 5.31,0.7 7.43,0.7 22.61,-0.3 30.93,-0.34l7.82 13.75c0.54,1.06 6.19,12.91 6.29,13.18 8.9,23.3 11.6,-10.26 4.6,29.62 -2.22,0.97 -5.69,-0.74 -7.04,1.82 -1.26,2.37 -5,1.35 -6.6,1.41 -42.3,1.53 31.94,9.13 -10.58,0.36 -23.11,-4.77 -8.15,-5.77 -7.01,-8.8l-6.84 10.76c-1.25,2.04 -7.6,13.1 -9.9,15.64 -12.89,14.21 -15.14,11.09 -34.45,18.56l-42.48 41.98c-17.08,-6.74 -12.96,-5.05 -23.1,-14.43 -8.11,-7.5 -7.85,-6 -12.31,-19.05 -6.6,6.89 -11.23,11.27 -18.74,17.36 27.13,9.81 13.7,-9.26 24.82,16.67l-17.16 15.22z"/>
  <path class="fil16" d="M1275.25 694.71c-64.45,-12.97 -38.48,1.48 -40.86,37.45l-12.19 32.34c-11.57,13.93 -20.69,13.25 -36.29,16.19l-10.61 1.51c1.3,20.97 0.34,1.13 -3.49,-0.55 -20.9,-9.16 29.65,-8.4 -23.05,-7.76 8.13,28.34 5.27,13.52 4.12,36.15 -7.7,40.53 31.47,91.63 34.49,139.11 2.7,29.6 17.56,40.55 13,68.83 5.39,6.14 4.83,-3.04 10.94,16.95 6.02,19.68 2.89,7.41 1.34,21.19l10.6 0c2.05,-21.15 -4.23,-35.55 -1.17,-62.11 5.31,-46.16 0.34,-15.91 28.65,-30.63 -1.28,-18.31 -2.29,-31.63 1.75,-55.69l5.6 -39.12c19.43,11.75 15.88,12.49 48.63,12.49l1.38 -17.67c35.18,6.76 -23.25,-7.48 10.69,5.48l33.2 -11.18c13.95,-14.4 32.27,-34.58 46.45,-39.48 18.83,-6.5 -15.35,-3.32 22.05,-4.81 -0.04,-0.9 -1.04,-3.31 -1.08,-2.48l-1.58 -2.89c0,0.01 -0.04,0.4 -0.01,0.43l15.2 17.43c1.44,-1.52 3.17,-6.17 3.9,-4.93 3.16,5.37 -6.32,-15.44 47.44,-26.76l25.95 -8.61c20.49,-12.35 43.84,-51.75 53.9,-63.05 5.22,10.2 2.93,16.21 11.36,30.25 17.25,28.73 15.77,-13.02 15.69,23.18 -4.48,-11.46 -2.32,-0.95 16.16,-6.25 -2.16,24.95 -0.08,32.02 -8.16,43.7l18.98 -6.22c0.95,11.09 1.81,23.84 4.23,31.12l27.88 47.21c11.43,29.33 4.07,18.14 1.34,22.59 9.65,-36.79 -5.08,-14.29 22.71,-23.55l-9.94 -33.63 -16.63 -57.9 -0.89 -8.42c-18.59,-17.79 -29.43,-67.61 -38.03,-96.2 -6.96,-23.13 -21.74,-79.21 -33.56,-93.68 -14.18,-5.62 -10.82,-1.31 -22.18,-18.88 -0.58,-0.9 -1.46,-4.03 -1.47,-6.11l5.68 19.17c1.07,10.9 -0.42,14.49 -0.91,24.44 -0.84,16.99 0.33,29.75 -1.06,43.93 -3,30.75 -1.02,52.2 -23.53,59.68 -49.65,16.49 24.55,-22.07 -48.63,22.53 -25.72,15.67 -21.4,4.45 -41.78,25.95 -18.43,19.45 -19,7.62 -23.48,26.71 -13.23,-11.18 -5.98,-3.54 -15.51,-16.57 -4.81,-6.58 -3.16,-8.15 -3.24,-8.41l-45.56 31.24c-13.06,-21.13 -8.44,-8.39 -29.99,-25.11 -1.12,-0.87 -2.51,-2.09 -3.58,-2.99l-49.5 -38.75c0,-22.27 -2.55,-21.58 4.66,-36.86z"/>
  <path class="fil16" d="M761.29 644.76l21.98 31.24 -39.56 28.93c-1.21,1.06 -8.66,6.18 -10.41,7.51l-0.3 -5.64c-0.06,-0.62 -0.18,-2.56 -0.27,-3.28l-4.65 -21.27 -18.98 13.29c-1.07,0.81 -2.55,1.89 -3.59,2.72 -1.04,0.83 -2.54,1.9 -3.54,2.76 -1,0.85 -2.5,1.95 -3.45,2.84l-15.19 21.61c-47.13,-20.03 -21.03,7.17 -59.93,-2.35l-19.12 -11.67c-0.98,-0.87 -2.45,-2.03 -3.35,-2.96 -14.14,-14.6 -8.52,7.52 -11.14,-19.53l-28.24 12.01 -6.88 9.93c-3.43,26.15 -9.55,54.08 -26.91,71.29l-2.2 21.93 17.14 3.35 7.4 -6.25c71.45,5.43 53.22,-31.6 106.72,-24.39 15.14,2.04 27.08,11.55 36.39,14.1 6.1,1.67 65.61,1.02 71.24,1.28 7.89,0.37 25.68,0.55 41.55,-1.36 29.73,-3.59 24.57,-15.17 28.69,14.92l30.76 -18.26c9.78,11.57 -0.66,-1.38 10.05,8.35l9.72 9.35c21.17,24.46 -1.91,22.46 38.52,25.77 21.83,1.78 18.4,16.03 28.22,33.68 24.56,-11.01 16.17,-18.09 23.15,-42.59 7.32,-25.71 1,-7.42 12.4,-22.85l26.94 -40.63c6.29,-11.41 7.79,-12.98 12.05,-27.51 11.27,-38.35 0.59,-40.53 20.75,-50.25 24.82,-40.51 3.48,-28.78 -1.58,-34.77 -21.14,-1.1 -20.76,16.3 -28.75,65.55 -17.28,5.76 -8.69,-0.85 -21.81,4.41l-27.51 13.09c-3.32,-40.06 -7.61,-0.13 -14.36,-41.86 -1.66,17 -21.67,7.55 -45.06,-3.01l-8.61 -4.24c-16.96,-7.03 -17.4,-2.86 -24.72,-1.43l-14.7 -29.43c-2.77,15.15 0.24,8.25 -20.64,12.18l-29.34 -24.68c4.03,22.34 -12.51,23.65 -14.39,25.3 -22.02,-8.31 -22.96,-12.74 -29.96,-24.68 0.84,6.65 6.21,1.08 -4.52,7.52z"/>
  <path class="fil17" d="M630.97 485.3l-33.22 110.79c4.73,1.11 14.29,-2.36 23.07,4.97l6.25 49.95 18.8 0.02c-0.31,-0.61 -1.33,-7.42 -1.19,-8.64 0.1,-0.83 0.04,-3.26 0.23,-4.28l2.33 -8.43c1.13,-3.32 7.96,-17.65 9.02,-20.74l9.25 -23.85c13.72,-15.12 6.38,-8.93 30.27,-15.27 0.34,1.78 1.64,2.38 1.87,5.09 5.54,65.63 0.24,10.58 -1.87,44.86 32.75,6.81 39.35,11.27 65.51,24.99 10.73,-6.44 5.35,-0.87 4.52,-7.52 7,11.94 7.94,16.37 29.96,24.68 1.88,-1.65 18.42,-2.96 14.39,-25.3l29.34 24.68c20.88,-3.94 17.87,2.96 20.64,-12.18l14.7 29.43c7.32,-1.43 7.76,-5.6 24.72,1.43l8.61 4.24c23.4,10.55 43.4,20 45.06,3.01 6.75,41.74 11.03,1.8 14.36,41.86l27.51 -13.09c13.13,-5.25 4.53,1.36 21.81,-4.41 7.99,-49.24 7.61,-66.65 28.75,-65.55 5.07,6 26.41,-5.74 1.58,34.77 -3.75,42.27 -18.25,48.17 -10.29,82.35 1.05,-1.26 2.01,-5.21 2.42,-4.27 0.41,0.95 1.87,-3.31 2.46,-4.27l14.22 -21.04c0.75,-0.98 2.09,-2.84 3.41,-3.98 -5.01,-25.75 5.65,-27.28 7,-53.78l0.49 -33.74c-5.08,-27.01 -3.65,-27.91 4.97,-47.93 -26.43,17.17 -37.09,21.39 -62.8,12.02l-9.13 -3.88c-25,-11.37 17.54,9.14 -8.29,-4.16 -48.4,-24.93 -25.4,7.09 -39.74,-30.87l-38.92 11.82 -2.29 -68.04c-18.81,10.65 9.33,8.14 -30.13,11.48l-22.36 -23.98c-12.97,30.32 7.12,11.57 -21.85,24.37 -6.3,-9.14 -4.67,-5.72 -11.58,-13.22 -37.07,-40.31 13.84,21.99 -10.3,-10.83 -10.59,25.69 -19.54,10.07 -34.37,36.55l-16.58 -22.72c-13.27,-23.14 -5.42,-59.22 -35.9,-30.43 -15.47,14.61 -6.72,8.53 -15.61,28.79 -20.35,2.59 1.78,2.02 10.63,8.77 -48.74,0 -18.02,-2.8 -46.59,36.34 -5.12,7.02 1.86,2.01 -12.54,13.6 -16,12.87 -9.85,5.81 -40.8,12.51 -0.4,-41.74 -2.33,-60.93 8.23,-96.95z"/>
  <path class="fil18" d="M916.51 1060.48c2.51,12.04 -25.53,134.82 -52.02,134.84 -16.42,0.01 -16.65,-25.27 -18.75,-37.23 -2.71,-15.39 -0.13,-21.03 -13.51,-27.23 -0.62,1.7 -2.98,10.11 -4.9,19.6 -7.61,0.01 -24.65,-0.77 -31.31,0.53 -15.49,3.02 -9.91,-0.74 -16.81,10.11 -31.49,-44.44 -36.08,-11.31 -58,-54.45 -22.41,13.78 -7.31,13.76 -38.39,17.43 -21.92,2.59 -25.01,-3.12 -45.08,12.19 -6.14,-18.35 4.47,-19.64 -21.79,-28.22 -27.04,-8.84 -70.49,-8.67 -90.8,-7.7 -19.2,0.92 -32.23,8.34 -47.63,20.4 -40.86,31.98 6.81,4.04 -25.26,14.12 -18.28,5.74 -5.4,7.43 -21.76,14.31 3.23,-14.22 8.67,-24.92 3.1,-42.15 -6,10.35 -9.35,20.91 -12.69,35.3 2.29,21.1 -9,33.54 14.23,40.41 28.92,8.55 26.15,-19.06 29.53,-27.71l47.13 42.34c26.71,-4.4 28.12,-13.31 46.71,-10.14 19.62,3.35 10.26,10.58 56.09,9.74 8.11,-9.2 4.95,-2.51 12.49,-17.62l23.93 23.15c33.53,12.68 -1.74,-2.48 38.55,-4.34 9.91,9.67 8.07,14.41 21.37,17.95l7.56 0.56c0.56,0.1 2.18,0.45 2.81,0.58 3.67,0.8 6.31,3.36 23.54,5.34 32.06,3.69 70.01,-2.3 101.66,3.14 8.57,62.99 10.44,34.03 17.95,68.72 -31.46,13.88 -15.05,5.16 -23.17,36.55l-14.31 63.47c23.49,2.89 32.77,9.51 56.25,12.03l418.56 0.4c49.13,-4.19 8.21,1.66 21.48,-14.22l-476.68 1.88c-4.87,-26.79 4.97,-48.07 12.67,-72.6 4.03,-12.83 6.7,-22.26 10.73,-33.94l16.74 -30.93c0.32,-19.83 13.1,-69.1 30.07,-87.45 -2,-22.66 8.76,-52.14 17.43,-74.24 1.26,-3.2 4.13,-10.18 5.83,-13.25 6.57,-11.84 -0.03,-3.49 8.47,-11.99l-3.87 -34.62 -2.04 -6.42c-20.27,22.71 8.72,14.75 -26.11,31.38z"/>
  <path class="fil19" d="M478.25 925.89l-35.83 103.66c-8.3,49.88 -33.75,77.38 -41.73,133.7 22.24,-15.24 3.42,14.21 20.22,-20.92 3.33,-14.38 6.68,-24.95 12.69,-35.3 5.58,17.22 0.13,27.93 -3.1,42.15 16.36,-6.88 3.48,-8.57 21.76,-14.31 32.07,-10.08 -15.6,17.87 25.26,-14.12 15.4,-12.05 28.43,-19.48 47.63,-20.4 20.31,-0.97 63.76,-1.14 90.8,7.7 26.26,8.58 15.65,9.87 21.79,28.22 20.07,-15.31 23.16,-9.6 45.08,-12.19 31.08,-3.67 15.99,-3.65 38.39,-17.43 21.92,43.14 26.51,10 58,54.45 6.9,-10.86 1.32,-7.09 16.81,-10.11 6.66,-1.3 23.71,-0.52 31.31,-0.53 1.93,-9.49 4.28,-17.9 4.9,-19.6 -0.3,-26.61 8.25,-46.68 5.4,-59.32 -3.79,-16.79 -3.53,-11.71 -8.18,-17.95 -11.5,1.46 -14.1,3.89 -18.23,4.99 -20.93,5.57 -3.83,5.85 -19.8,0.89l-31.78 -10.86c-1.32,-0.41 -22.56,-8.07 -22.9,-8.24 -39.89,-20.4 -58.7,-9 -71.8,-46.14 -36.84,21.12 -19.48,14.38 -50.35,-5.68l-24.55 20.17c-18.37,6.63 -4.91,-6.62 -24.3,9.74 8.04,-34.45 8.27,-15.19 -26.12,-37.29 -20.02,10.2 -12.07,-6.34 -15.13,23.29 -27.18,-11.51 11.94,-6.4 -27.28,-11.18 -2.64,-37.62 7.24,-41.92 16.43,-65.56 21.69,-55.77 -6.95,-48.76 -8.78,-49.71 -6.2,15.48 -12.23,48.32 -26.62,47.88z"/>
  <path class="fil20" d="M269.75 2290.98l-100.75 -6.67 181.57 -16.91 -23.8 -16.52c-50.72,-44.28 -33.8,9.68 -71.04,-41.53 -31.24,5.56 -11.17,3.36 -23.19,7.08 -45.34,14.01 -25.83,0.37 -39.98,17.91 1.14,-23.81 -3.52,-22.06 -22.95,-28.82 -16.45,-5.72 -24.53,-4.55 -44.7,-2.78l-10.67 -38.4c-33.05,4.73 -18.75,8.58 -43.15,15.33 -10.11,-32.82 -41.64,-17.85 -9.57,-23.8 -15.56,-29.13 -12.15,-23.12 1.13,-46.21l-7.53 15.74c-7.79,42.71 -68.59,176.67 -52.38,197.07 88.29,4.55 179.7,1.97 268.27,1.92 88.29,-0.04 181.52,5.4 265.98,-5.21 18.5,-15.25 27.17,-39.02 33.24,-64.08 9.78,-40.39 13.03,-41.62 23.77,-76.27 13.43,-43.3 42.29,-107.86 48.78,-155.37 -24.43,10.9 -3.65,-4.34 -18.09,14.32l-65.14 176.54c-8.77,22.1 -15.63,46.72 -23.48,66.04 -16.24,39.95 -109.54,28.46 -152.62,25.92 -55.93,-3.29 -115.31,-3.06 -168.73,-6 15.03,-9.29 38.42,-5.62 55.03,-9.29z"/>
  <path class="fil21" d="M1295.52 1244.52c12.02,1.21 -1.48,9.22 19.67,0.83 20.5,-8.14 25.32,-25.77 66.62,-21.35 12.77,1.37 -4.24,2.08 13.23,-0.23 47.68,-6.31 21.19,-2.29 31.69,1.53 99.72,36.31 33.85,-15.8 99.66,18.72 5.4,-10.37 5.83,-14.19 12.79,-23.35 145.21,-1.55 108.76,9.04 144.17,10.57 23.67,1.03 16.23,0.41 28.93,-7.1 24.59,-14.54 27.69,-53.86 32.61,-101.69 -11.15,-8.54 -17.01,-14.43 -26.98,-19.52 -13.63,-17.35 -2.01,-2.51 -9.52,-14.79l-7.44 -12.98c-7.4,5.51 12.1,6.53 -18.09,6.25 -19.64,24.68 -3.97,1.6 -8.57,18.91 -1.69,6.34 -0.88,9.68 -1.11,15.79l-12.69 -0.66c-52.49,9.55 -75.92,7.68 -108.77,17.19 -36.13,10.46 -12.72,2.56 -34.16,-3.53 -29.97,-8.51 -91.35,-7.15 -112.34,0.86 -30.65,11.69 15.85,5.39 -53.45,7.83l-10.66 33.88c-32.09,2.2 -15.35,-4.37 -30.87,12.29 -13.2,14.17 -9.51,4.85 -13.11,29.28l-10.56 -10.83c0.88,17.89 -2.12,33.89 8.95,42.09z"/>
  <path class="fil10" d="M1486.6 1928.74l38.48 106.24c47.22,-8.56 11,30.31 51.56,65.35 17.52,-33.49 10.85,-13.12 9.2,-59.51 57.88,-24.98 27.48,-19.02 59.55,-54.4 24.99,33.9 33.2,25.25 91.62,7.08 60.2,-18.72 34.09,-3.14 59.33,-1.5l6.44 -0.69c0.21,-0.04 6.44,-12.06 60.32,-4.26 26.66,3.86 11.53,7.58 30.02,5.22 17.75,-2.27 29.83,-13.47 39.69,-24.11 13.31,-14.37 5.87,-12.58 26.25,-12.79 -2.41,1.97 -7.42,-19.82 -2.32,9.39 3.93,22.51 -3.04,-3.45 4.31,11.26 12.05,24.12 7,-4.81 10.77,25.18 4.84,38.46 -12.13,36.76 18.11,55.43 -9.23,24.77 -6.19,-0.87 -11.95,35.99l34.78 0.37c1.89,-46.6 -4.39,-80.49 1.03,-127.39 -5.87,-51.54 -11.54,6.97 -12.16,-40.82 -42.15,11.24 -14.27,-9.67 -63.2,11.92 -23.51,10.37 -41.85,8.56 -74.41,6.42 -31.18,-12.02 25.27,16.37 -9.81,-7.89 -27.18,-18.79 -36.91,-4.98 -74.36,-14.65 -46.94,-12.12 -21.45,8.42 -78.44,4.49 -31.65,-2.18 -34.44,-15.45 -37.8,-22.97 -44.46,0.9 -25.06,26.8 -63.82,5.91 -31.05,-16.74 -12.03,-10.91 -58,2.01l-1.62 53.28c-18.79,1.23 -21.3,-11.92 -32.3,-36.13l-21.3 1.59z"/>
  <path class="fil22" d="M1477.86 1884.23c-5.73,25.96 -0.51,24.58 8.74,44.51l21.3 -1.59c10.99,24.21 13.51,37.35 32.3,36.13l1.62 -53.28c45.97,-12.92 26.95,-18.75 58,-2.01 38.76,20.89 19.36,-5.01 63.82,-5.91 3.36,7.52 6.15,20.79 37.8,22.97 56.99,3.93 31.5,-16.6 78.44,-4.49 37.45,9.67 47.18,-4.14 74.36,14.65 35.08,24.26 -21.37,-4.13 9.81,7.89 32.56,2.14 50.9,3.96 74.41,-6.42 48.93,-21.58 21.05,-0.68 63.2,-11.92 0.61,47.78 6.29,-10.72 12.16,40.82 28.63,-2.8 7.84,-2.1 17.34,4.17l5.93 5.47c20.87,25.59 -14.43,-32.56 9.24,21.31 13.53,30.78 6.74,22.56 24.87,28.8l-34.58 -112.39c-11.37,-6.23 -20.75,-47.66 -23.63,-66.18 -4.22,-3.01 -1.58,-0.51 -7.66,-0.93 -34.31,25.28 4.89,-4.16 -13.8,38.36 -0.62,-1.64 -8.62,-13.4 -13.68,-27.22 -6.49,-17.74 -6.2,-21.96 -13.83,-37.15 -20.13,16.19 -42.83,34.76 -37.45,61.85l-15.86 -5.37c-1.21,0.13 -3.16,0.61 -4.45,0.82 -15.65,2.59 -26.27,6.8 -44.84,3.39 -38.82,-7.12 -52.26,-4.68 -71.07,-18.9 -11.57,-8.74 11.36,-6.88 -25.78,-11.51 -32.4,-4.04 -158.61,-3.03 -179.47,-13.68l-50.23 -25.96c-23.14,41.03 -22.81,-4.27 -29.37,37.48 -3.82,-16.41 -0.25,-11.06 -16.26,-18.74 -2.02,12.51 -5.26,20.48 -6.86,27.16l-4.5 27.82z"/>
  <path class="fil15" d="M793.86 29.43c-6.02,27.26 -28.96,81.1 -39.88,111.37 -14.89,41.27 -25.28,80.77 -38.63,118.98 1.04,2.36 2.13,3.17 2.66,7.26l6.79 19.45c20.98,-9.62 2.88,2.41 13.28,-11.12 0.24,-0.31 7.38,-15.76 7.72,-16.45 35.22,11.43 -27.56,-1.59 15.42,11.51 28.98,8.83 24.17,-42.69 24.42,-48.19l17.8 17.23c15.1,-41.69 9.21,-5.87 32.56,-35.41l13.25 12.4 17.16 -15.22c-11.12,-25.93 2.31,-6.86 -24.82,-16.67 7.51,-6.09 12.14,-10.47 18.74,-17.36 4.46,13.05 4.2,11.55 12.31,19.05 10.14,9.38 6.02,7.69 23.1,14.43l42.48 -41.98c19.32,-7.47 21.56,-4.35 34.45,-18.56 2.3,-2.54 8.65,-13.6 9.9,-15.64l6.84 -10.76c-1.14,3.02 -16.1,4.03 7.01,8.8 42.53,8.77 -31.72,1.16 10.58,-0.36 1.6,-0.06 5.34,0.97 6.6,-1.41 1.36,-2.56 4.82,-0.85 7.04,-1.82 7,-39.88 4.29,-6.32 -4.6,-29.62 -0.1,-0.26 -5.75,-12.12 -6.29,-13.18l-7.82 -13.75c-8.32,0.03 -23.5,1.03 -30.93,0.34 -1.85,-0.17 -3.72,-0.48 -5.31,-0.7 -1.48,-0.21 -3.71,-0.9 -4.87,-1.11 -20.12,-3.64 -8.12,-14.93 0.64,-20.59 15.27,-9.85 9.06,-13.19 22.1,-1.58 -31.72,0 -33.83,-6.03 -62.82,-6.37 -87.52,-1.04 -54.48,6.9 -74.96,-18.55l418.53 -0c101.09,-0.26 66.88,-3.08 113.44,31.18l-9.35 -29.8c-9.67,-1.35 -514.6,-11.35 -552.02,0.21l-22.52 14.02z"/>
  <path class="fil13" d="M504.87 878.01c1.83,0.96 30.47,-6.06 8.78,49.71 -9.19,23.64 -19.07,27.94 -16.43,65.56 39.22,4.78 0.09,-0.33 27.28,11.18 3.06,-29.63 -4.89,-13.09 15.13,-23.29 34.39,22.11 34.16,2.85 26.12,37.29 19.39,-16.36 5.93,-3.11 24.3,-9.74l24.55 -20.17c30.87,20.07 13.51,26.81 50.35,5.68 13.1,37.14 31.91,25.74 71.8,46.14 0.34,0.17 21.57,7.83 22.9,8.24l31.78 10.86c15.97,4.96 -1.13,4.68 19.8,-0.89 4.13,-1.1 6.74,-3.53 18.23,-4.99 0,-28.66 7.4,-13.79 8.14,-13.92l27.34 1.26c0.53,-0.02 2.23,0.08 2.78,0.04l6.23 -0.65c8.39,-1.47 1.42,-5.24 26.38,-6.1 8.13,19.8 2.47,4.01 16.18,26.27 34.83,-16.63 5.84,-8.67 26.11,-31.38l2.04 6.42c14.98,-13.8 3.17,13.97 12.73,-17.19 6.53,-21.26 1.57,-13.2 -0.27,-20.41 -2.72,-28.87 14.24,-55.87 -5.17,-82.57 -10.32,9.33 -3.58,-0.79 -9.48,13.01 -14.09,32.96 2.81,-24.82 -2.35,8.9 -0.29,1.89 2.5,17.07 2.59,20.54 -1.87,-0.91 -12.25,-2.67 -25.63,7.24l-6.02 5.68c-27.47,20.3 -38.21,-9.03 -40.32,-11.41l-28.41 18.19c-19.25,7.8 0.6,0.65 -18.79,0.04 -0.9,-0.03 -2.86,-0.38 -3.8,-0.32l-19.95 7.8c-24.5,14.09 -9.25,-7.78 -22.76,16.53 -2.67,-6.82 -4.77,-15.97 -7.99,-23.92 -25.58,4.7 -35.41,1.34 -30.16,17.67 -27.1,-42.14 -11.66,-45.4 -7.53,-67.43 -5.3,0.93 -16.44,4.45 -18.4,5.01l-25.33 13.74c-18.59,-33.53 -21.6,-22.03 -35.52,-12.71 -12.7,-36.39 3.61,-12.13 -23.19,-23.76l-26.79 -19.32 -12.57 15.15c-7.42,4.76 -11.14,-0.72 -18.97,-4.84 -1.31,-0.69 -2.92,-1.78 -4.27,-2.47l-20.41 -8.58 -7.95 17.52c-0.36,0.47 -1.42,1.96 -1.79,2.26 -0.81,0.64 -5.25,2.2 -8.56,-2.5 -11.8,-16.75 -2.81,-25.68 1.92,-43.91l-19.85 -5.27 -4.77 19.87z"/>
  <path class="fil23" d="M856.31 222.28l7.53 35.81c28.33,-2.08 23.82,3.44 62.11,4.58 5.57,-12.08 2.21,-1.67 7.26,-18.25 14.72,29.86 59.29,26.01 87.74,7.46 35.6,-23.22 24.78,13.04 93.12,-11.79 50.55,-18.37 27.73,-20.68 61.7,-39.17 23.18,-12.62 23.83,-8.94 54.33,-8.94l4.83 -25.35c1.74,1.45 3.15,1.78 3.45,3.1l8.05 5.07c22.56,3.56 0.17,-7.87 40.53,-3.88 18.91,1.87 10.53,-2.03 17.02,-12.33l4.92 -7.55c15.99,-24.01 13.78,2.17 12.73,-40.61 -0.61,-25.12 1.85,-22.47 25.19,-44.15 1.37,-1.27 3.43,-2.91 4.94,-4.57 -30.57,-11.34 -23.35,-27.64 -58.23,0.21 -31.33,25.02 -4.95,-1.65 -29.48,8.07 -7.39,2.93 -10.72,9.56 -27.1,16.94 -30.94,13.95 -2.85,3.25 -25.87,0.11 -17.36,-2.37 -32.14,5.67 -43.43,17.34l-8.03 10.95c-15.09,18.85 2.74,14.05 -27.72,16.44 19.63,36.72 12.68,-5.41 23.21,25.7 -44.02,18.77 -10.09,7.46 -35.83,8.18 -6.32,0.17 -16.86,-4.79 -36.12,19.51 -27.22,-10.11 0.23,-12.49 -30.94,-11.15 -12.6,0.54 -13.52,-0.24 -30.49,16.17 -10.27,9.92 -8.42,10.26 -21.34,22.37 -0.9,0.84 -2.33,2.17 -3.22,2.98l-6.14 5.43c-18.78,16.54 18.58,-4.18 -7.82,6.52 -25.66,-8.25 10.67,8.21 -7.88,-6.09 -54.99,-42.4 -39.3,-11.17 -67.1,-10.72 -19.89,0.32 -2.5,-4.2 -32.65,-10.87 -4.95,15.74 0.25,3.73 -6.74,12.43l-12.52 10.06z"/>
  <path class="fil9" d="M2025.44 2253.43c-40.45,-0.97 -16.57,3.05 -30.48,-21.67l-7.84 -21.04c-4.4,-13.89 -11.04,-23.75 -30.06,-30.08 -28.33,-9.44 -36.7,-9.03 -55.53,14.5 -5.21,-7.54 -8.54,-10.08 -13.15,-16.47l-14.39 -20c-0.63,-2.83 -2.28,-3.28 -3.7,-4.67l-19.97 20.4c-11.89,11.35 -12.87,-7.86 -14.4,18.64 -11.91,-24.98 -14.56,-26.42 -49.95,-27.06l-12.52 12.5c-5.84,-14.36 4.34,-8.18 -13.04,-18.83 -36.93,-22.64 -50.26,7.72 -73.64,9.27l-32.02 -7.14c3.4,55.03 1.05,0.8 -10.05,30.98 -6.74,18.35 -4.58,18.23 4.78,34.41l8.16 11.61c0.84,1.07 2.19,2.27 3.03,3.33 0.84,1.06 2.28,2.18 3.09,3.26 10.3,13.76 11.62,13.7 6.64,42.39l33.41 -8.28c93.29,-28.76 56.34,-5.76 110.68,-12.41 34.66,-4.25 11.17,-2.41 25.43,-7.86 56.84,-21.71 64.53,-0.8 74.12,16.06 17.24,0 27.2,1.27 43.73,-2.55 21.3,-4.92 1.56,-7.29 50.11,-14.31l17.54 -4.96z"/>
  <path class="fil24" d="M1306.69 881.06l26.34 30.78c0.04,-0.01 32.6,-26.85 62.47,14.05 -15.37,21.05 -5.11,4.42 -22.92,18.74 7.68,20.96 20.61,28.48 25.4,45.01 21.49,-17.02 12.57,-20.4 35.16,-22.31 6.1,-0.51 36.23,-1.73 43.6,-1.36 5.96,-17.22 -7.48,-15.01 6.25,-15.1 12.64,-24.75 -20.31,-11.17 31.21,-18.71 -13.99,-9.04 -8.63,-25.77 14.6,-20.87 -43.74,-2.04 -14.59,6.08 -26.02,-16.64 10.77,-21.67 -5.22,-2.98 26.19,-23.69l7.26 -4.63c1.02,-0.72 2.48,-1.87 3.48,-2.6l43.21 -25.3c0,-39.57 -5.24,-38.98 8.32,-62.44 0.07,-36.2 1.56,5.55 -15.69,-23.18 -8.43,-14.04 -6.15,-20.05 -11.36,-30.25 -10.05,11.29 -33.4,50.7 -53.9,63.05l-25.95 8.61c-53.76,11.32 -44.28,32.13 -47.44,26.76 -0.73,-1.24 -2.46,3.41 -3.9,4.93l-15.2 -17.43c-0.02,-0.03 0.02,-0.42 0.01,-0.43l1.58 2.89c0.04,-0.83 1.04,1.58 1.08,2.48 -37.4,1.49 -3.23,-1.69 -22.05,4.81 -14.18,4.89 -32.5,25.07 -46.45,39.48l-33.2 11.18c-33.93,-12.97 24.5,1.28 -10.69,-5.48l-1.38 17.67z"/>
  <path class="fil12" d="M1591.24 775.98c-13.56,23.46 -8.32,22.87 -8.32,62.44l-43.21 25.3c-1,0.74 -2.46,1.89 -3.48,2.6l-7.26 4.63c-31.41,20.71 -15.42,2.03 -26.19,23.69 11.43,22.72 -17.71,14.59 26.02,16.64 -23.22,-4.9 -28.59,11.84 -14.6,20.87 -51.52,7.54 -18.57,-6.04 -31.21,18.71 -13.73,0.08 -0.28,-2.12 -6.25,15.1 26.08,1.97 29.88,4.9 54.37,-3.97 41.25,-14.94 11.45,-5.61 25.72,-2.52 41.58,9.01 18.22,-5.71 31.76,-1.05 12.25,4.22 4.54,21.82 1.74,29.93 0.94,0.4 2.72,-1.1 3.05,-0.04 2.29,7.22 2.72,-0.54 6.52,0.36 0.68,0.16 2.75,0.39 3.52,0.65 11.81,4 14.76,12.45 26.22,26.83l19.3 -25.78c7.12,-6.4 1.96,10.59 6.12,-11.66 0.17,-0.9 0.21,-2.98 0.37,-3.94l2.44 -13.45c21.62,13.12 22.06,54.52 55.22,97.29 9.54,12.3 6.3,-2.54 10.66,17.17 10.14,45.83 -4.71,25.76 -5.84,27.14 9.97,5.09 15.83,10.98 26.98,19.52 10.52,0.06 10.16,3.96 10.64,-2.93l-81.17 -234.94c-27.78,9.26 -13.05,-13.23 -22.71,23.55 2.73,-4.45 10.08,6.74 -1.34,-22.59l-27.88 -47.21c-2.42,-7.28 -3.28,-20.03 -4.23,-31.12l-18.98 6.22c8.08,-11.68 6,-18.75 8.16,-43.7 -18.48,5.3 -20.64,-5.22 -16.16,6.25z"/>
  <path class="fil17" d="M1278.36 645.38c4.45,37.36 0.52,8.36 8.07,21.32 35.81,61.49 -8.03,-39.66 12.23,18.65 -30.67,0 -10.75,-2.11 -23.4,9.35 -7.21,15.28 -4.66,14.59 -4.66,36.86l49.5 38.75c1.07,0.9 2.46,2.12 3.58,2.99 21.55,16.73 16.94,3.98 29.99,25.11l45.56 -31.24c0.08,0.26 -1.58,1.83 3.24,8.41 9.53,13.03 2.27,5.4 15.51,16.57 4.47,-19.09 5.05,-7.26 23.48,-26.71 20.38,-21.5 16.06,-10.28 41.78,-25.95 73.19,-44.6 -1.02,-6.04 48.63,-22.53 22.51,-7.47 20.53,-28.93 23.53,-59.68 1.38,-14.18 0.22,-26.95 1.06,-43.93 0.49,-9.95 1.99,-13.54 0.91,-24.44l-5.68 -19.17 -6.22 -6.25c-3.8,17.3 -7.95,26.09 -9.75,44.06 -2.51,25.11 0.42,33.89 -5.89,60.93 -22.17,1.63 -43.9,-13 -58.02,-15.51 -8.56,-1.52 0.91,-12.6 -27.39,15.1l-24 20.4c-1.07,0.76 -2.65,1.83 -3.69,2.56 -19.86,13.96 11.62,-0.05 -14.98,10.55 -28.72,-22.29 -25.16,-14.52 -32.45,-30.62l-22.53 0c-6.41,14.88 2.97,7.52 -13.74,12.81 -25.94,-15.32 -32.99,-19.67 -54.67,-38.42z"/>
  <path class="fil25" d="M1223.25 1056.11c1.07,19.24 5.73,38.5 16.08,57.79 7.77,-28.3 -8.86,-42.75 5.6,-58.72 14.73,-20.56 -16.76,5.93 10.76,-6.78 0.69,-0.32 2.59,-0.81 3.33,-1.16 31.36,-14.85 15.13,-7.32 24.04,-30.48l4.07 29.04c32.89,-13.98 8.45,-3.7 25.31,-6.19l15.07 -5.62c21.2,-9.07 28.01,-18.58 44.87,-43.76 10.63,5.01 6.36,11.65 24.37,18.12l1.24 -18.7c-4.79,-16.53 -17.72,-24.05 -25.4,-45.01 17.81,-14.33 7.55,2.3 22.92,-18.74 -29.87,-40.9 -62.43,-14.06 -62.47,-14.05l-26.34 -30.78c-32.75,0 -29.2,-0.74 -48.63,-12.49l-5.6 39.12c-4.04,24.06 -3.03,37.37 -1.75,55.69 -28.31,14.72 -23.34,-15.53 -28.65,30.63 -3.06,26.56 3.22,40.96 1.17,62.11z"/>
  <path class="fil26" d="M597.75 596.09c-12.62,25.38 -31.32,74.78 -36.2,104.86l28.24 -12.01c2.62,27.04 -3,4.92 11.14,19.53 0.9,0.93 2.37,2.09 3.35,2.96l19.12 11.67c38.9,9.52 12.79,-17.68 59.93,2.35l15.19 -21.61c0.95,-0.89 2.45,-1.99 3.45,-2.84 1,-0.85 2.5,-1.93 3.54,-2.76 1.05,-0.83 2.52,-1.91 3.59,-2.72l18.98 -13.29 4.65 21.27c0.09,0.72 0.21,2.67 0.27,3.28l0.3 5.64c1.75,-1.33 9.2,-6.45 10.41,-7.51l39.56 -28.93 -21.98 -31.24c-26.16,-13.72 -32.76,-18.18 -65.51,-24.99 2.11,-34.28 7.42,20.77 1.87,-44.86 -0.23,-2.7 -1.54,-3.31 -1.87,-5.09 -23.88,6.34 -16.55,0.15 -30.27,15.27l-9.25 23.85c-1.06,3.09 -7.89,17.42 -9.02,20.74l-2.33 8.43c-0.19,1.02 -0.13,3.45 -0.23,4.28 -0.14,1.21 0.88,8.03 1.19,8.64l-18.8 -0.02 -6.25 -49.95c-8.78,-7.33 -18.33,-3.86 -23.07,-4.97z"/>
  <path class="fil27" d="M374.27 1219.54l-0.26 17.06c-4.24,21.14 -11.22,35.93 -17.72,55.42 -8.95,26.85 -4.77,34.82 -25.42,50.29 -2.18,18.73 -10.84,29.71 -15.22,52.12l11.59 6.22c8.67,-21.29 23.25,-33.87 12.58,-43.73l0.25 50.67 22.57 0.04 -0.56 -24.47 46.38 -0.78c2.39,-27 -5.68,-12.61 17.93,-26.34l17.68 -9.1c4.65,10.08 -11.27,10.62 16.17,14.5 31.05,4.39 11.96,2.43 17.55,-10.12 24.59,10.22 -1.95,2.47 17.76,24.62l12.41 9.18c23.58,21.12 -5.96,16.97 34.16,16.18l4.74 -44.23c-43.56,-15.19 -18.03,6.61 -44.42,-19.5l-18.02 -18.36c-0.34,-0.95 -0.23,-4.76 -1.04,-6.68 -25.37,4.35 -11.34,-6.83 -24.96,9.22 -9.91,-5.09 -34.4,-36.27 -37.98,-56.26 -14.47,13.92 -5.38,13.2 -24,4.26 2.74,-38.24 17.29,-65.29 4.55,-96.98 -10.47,11.01 -4.34,3.42 -10.94,15.94 -0.57,1.08 -5.19,12.4 -5.66,13.47 -4.4,10 -6.48,15.19 -10.13,17.38z"/>
  <path class="fil26" d="M1128.12 728.37c-5.09,24.34 -0.06,23.24 6.89,45.81 1.38,4.48 3.9,15.89 5.35,19.21 8.48,19.37 5.2,9.38 12.51,16.63 1.15,-22.63 4.01,-7.81 -4.12,-36.15 52.71,-0.63 2.15,-1.4 23.05,7.76 3.83,1.68 4.79,21.52 3.49,0.55l10.61 -1.51c15.59,-2.94 24.72,-2.26 36.29,-16.19l12.19 -32.34c2.38,-35.97 -23.58,-50.42 40.86,-37.45 12.66,-11.47 -7.27,-9.35 23.4,-9.35 -20.26,-58.31 23.58,42.83 -12.23,-18.65 -7.55,-12.96 -3.61,16.03 -8.07,-21.32l-4.66 -28.75c-25.18,-2.08 -32.74,-2.42 -53.57,-9.6 -25.39,-8.75 -15.93,-9.85 -47.97,-4.44 -7.37,43.69 10.54,103.52 -23.4,137.44 -9.63,-6.4 -9.23,-3.71 -15.65,-20.33l-4.99 8.69z"/>
  <path class="fil28" d="M533.36 2011.71c20,22.71 12.88,8.65 42.79,9.52 33.97,0.99 2.79,5.48 39.2,26.22 4.85,-31.41 20.95,-72.13 30.53,-97l22.39 -68.75c-8.76,-10.31 -13.59,-19.24 -41.16,-23.03l-4.08 10.28c-1.71,4.29 -0.99,18.61 -25.23,26.65 -24.3,8.06 -24.49,-7.95 -46.09,-19.72 6.43,22.67 6.4,5.98 13.35,31.24 -13.47,9.09 -11.44,3.1 -19.21,23.75l-6.21 16.95c-38.71,0.04 -24.9,12.98 -32.53,-15.13l32.5 30.26 -6.88 27.65c-4.22,18.31 -7.02,3.39 0.63,21.12z"/>
  <path class="fil29" d="M1839.02 1443.26c-4.55,26.66 -1.9,22.59 -4.77,47.37 -2.27,19.56 -4.24,35.86 -5,56.01 -46.69,-10.01 2.46,-10.04 -40.18,-27.92 -1.67,2.07 -8.68,11.49 -11.92,13.89 -8.79,6.49 -2.94,6.53 -19.73,9.11 -26.9,4.14 -21.08,-1.21 -36.36,-13.46 6.68,19.71 4.5,16.89 2.68,39.96 5.43,-10.75 1.63,-6.9 15.35,-12.21 1.02,1.81 6.07,10.9 8.08,12.54 31.16,25.49 36.82,-13.71 30.57,4.19l28.04 1.41c23.5,2.8 18.37,-3.99 27.06,7.66l7.29 -5.12c1.01,-5.8 -19.94,13.33 -8.32,34.9 11.1,20.6 -4.55,1.73 12.12,11.12 12.17,6.85 42.88,7.31 51.32,-3.41 8.59,-30.02 1.58,-15.02 0.99,-36.86 -0.69,-25.27 1.09,-21.52 3.9,-46.52l-3.88 -10.32c-1.56,-1.71 -2.98,-3.94 -4.12,-5.59 -1.09,-1.57 -2.63,-3.49 -3.88,-5.36l-8.71 -14.15c-13.27,-23.26 -23.35,-44.99 -27.98,-73.58 -15.77,28.92 -7.21,27.61 -12.56,16.35z"/>
  <path class="fil30" d="M2012.77 2092.99c-15.68,85.92 32.3,85.86 41.07,55.06 15.66,23.02 9.44,23.31 41.35,21.97 -4.24,-42.07 -20.01,-69.22 -14.04,-102.54 4.6,-30.72 -1.39,-14.29 -9.98,-42.12 -18.13,-6.24 -11.34,1.98 -24.87,-28.8 -23.67,-53.87 11.63,4.28 -9.24,-21.31l-5.93 -5.47c-9.5,-6.28 11.29,-6.97 -17.34,-4.17 -5.42,46.9 0.86,80.79 -1.03,127.39z"/>
  <path class="fil31" d="M1721.06 1528.26c15.29,12.25 9.46,17.6 36.36,13.46 16.79,-2.58 10.94,-2.63 19.73,-9.11 3.24,-2.39 10.26,-11.82 11.92,-13.89 42.63,17.89 -6.52,17.91 40.18,27.92 0.76,-20.15 2.73,-36.45 5,-56.01 2.87,-24.78 0.22,-20.71 4.77,-47.37 -10.68,-6.9 -11.79,6.02 -8.09,-14.21 -23.34,9.88 -17.66,13 -44.4,18.46l0 -25.55c-17.1,2.66 -30.68,11.5 -48.88,14.76 0.19,20.86 27.99,22.43 -9.07,28.41 11.8,40.94 -18.25,-29.5 7.18,9.14 10.46,15.9 7.15,12.84 3.48,19.82 -18.55,35.27 -29.26,-5.38 -18.18,34.17z"/>
  <path class="fil21" d="M829.46 1053.59c4.64,6.24 4.38,1.15 8.18,17.95 2.85,12.64 -5.71,32.71 -5.4,59.32 13.38,6.19 10.8,11.83 13.51,27.23 2.1,11.96 2.33,37.25 18.75,37.23 26.49,-0.02 54.53,-122.8 52.02,-134.84 -13.71,-22.26 -8.05,-6.47 -16.18,-26.27 -24.96,0.86 -17.99,4.63 -26.38,6.1l-6.23 0.65c-0.55,0.04 -2.25,-0.05 -2.78,-0.04l-27.34 -1.26c-0.74,0.13 -8.14,-14.74 -8.14,13.92z"/>
  <path class="fil32" d="M793.86 29.43l22.52 -14.02c37.42,-11.55 542.34,-1.56 552.02,-0.21l-2.79 -1.44c-12.73,-19.89 -18.41,-12.63 -70.04,-11.76l-450.15 0.42c-37.5,-0.29 -42.83,-5.17 -51.55,27z"/>
  <path class="fil33" d="M1066.95 642.09l-0.49 33.74c1.74,-1.14 10.36,-5.67 11.89,-6.19 1.79,-0.61 5.11,-1.65 6.92,-2.25 1.89,-0.62 4.97,-0.99 7.38,-1.76 10.92,49.85 57.81,178.02 57.53,201.81 15.64,22.21 14.01,38.34 23.67,61.33 10.12,24.09 3.87,11.29 13.51,20.37 -3.02,-47.48 -42.19,-98.58 -34.49,-139.11 -7.31,-7.25 -4.03,2.73 -12.51,-16.63 -1.45,-3.32 -3.97,-14.73 -5.35,-19.21 -6.95,-22.58 -11.98,-21.47 -6.89,-45.81 -16.88,-15.44 -13.88,-22.91 -23.54,-54.59 -8,-26.24 -6.5,-36.29 -23.71,-55.57l-13.92 23.87z"/>
  <path class="fil28" d="M2131.67 2250.54c-31.18,3.99 -12.3,-2.62 -32.73,9.29l-12.88 11.33c-20.89,13.91 -23.57,4.7 -28.32,35.33 26.58,9.03 69.6,14.75 95.35,-6.22 -2.55,-20.13 -13.8,-30.87 -21.42,-49.73z"/>
  <path class="fil34" d="M330.86 1342.3c20.65,-15.47 16.48,-23.44 25.42,-50.29 6.49,-19.49 13.48,-34.28 17.72,-55.42 -18.8,12.48 -17.29,26.3 -24.55,47.85 -6.2,18.4 -13.66,36.76 -18.58,57.85z"/>
  <path class="fil35" d="M497.57 860.54l-6.29 18.51 -13.03 46.84c14.39,0.44 20.42,-32.39 26.62,-47.88l4.77 -19.87c-11.07,2.01 3.32,-7.52 -12.08,2.39z"/>
  <path class="fil33" d="M527.77 782.17c17.36,-17.2 23.48,-45.13 26.91,-71.29 -7.85,7.99 -3.87,-0.79 -13.57,17.26 -0.97,1.8 -4,10.72 -4.84,13.13 -4.83,13.9 -7.46,23.75 -8.5,40.9z"/>
 </g>
</svg>
