<?xml version="1.0" encoding="UTF-8"?>
<!DOCTYPE svg PUBLIC "-//W3C//DTD SVG 1.1//EN" "http://www.w3.org/Graphics/SVG/1.1/DTD/svg11.dtd">
<!-- Creator: CorelDRAW (Evaluation Version) -->
<svg xmlns="http://www.w3.org/2000/svg" xml:space="preserve" width="14.2503mm" height="14.5443mm" version="1.1" style="shape-rendering:geometricPrecision; text-rendering:geometricPrecision; image-rendering:optimizeQuality; fill-rule:evenodd; clip-rule:evenodd"
viewBox="0 0 56.21 57.37"
 xmlns:xlink="http://www.w3.org/1999/xlink"
 xmlns:xodm="http://www.corel.com/coreldraw/odm/2003">
 <defs>
  <style type="text/css">
   <![CDATA[
    .fil0 {fill:white}
   ]]>
  </style>
 </defs>
 <g id="Layer_x0020_1">
  <metadata id="CorelCorpID_0Corel-Layer"/>
  <path class="fil0" d="M15.68 53.36l-9.29 0c-1.58,0 -2.38,-0.81 -2.38,-2.38l0 -29.49c0,-0.75 0.34,-1.35 0.8,-1.71l19.94 -13.82c0.54,-0.41 1.02,-0.67 1.56,-1.07 1.9,-1.44 2.47,-0.91 5.07,1.02l18.37 12.74c1.21,0.84 2.44,1.33 2.44,2.83l0 29.49c0,1.58 -0.81,2.38 -2.38,2.38l-9.29 0c-2.71,0 -2.38,-2.28 -2.38,-4.02 0,-2.17 0,-4.35 0,-6.53 0,-2.84 -0,-3.56 -1.27,-5.25 -0.76,-1.02 -2.51,-2.28 -4.25,-2.28l-9.03 0c-1.66,0 -3.45,1.21 -4.2,2.2 -1.28,1.72 -1.32,2.36 -1.32,5.2 0,1.39 0.22,8.57 -0.25,9.53 -0.35,0.72 -1.06,1.13 -2.13,1.13zm-15.68 -32.5l0 30.99c0,2.69 2.82,5.52 5.52,5.52l11.04 0c1.66,0 3.45,-1.21 4.2,-2.2 1.28,-1.71 1.33,-2.36 1.33,-5.2 0,-2.17 0,-4.35 0,-6.53 0,-5.03 0.23,-4.14 9.66,-4.14 2.71,0 2.38,2.28 2.38,4.02 0,2.17 0,4.35 0,6.53 0,2.83 0,3.56 1.27,5.25 0.76,1.02 2.51,2.27 4.25,2.27l11.04 0c0.73,0 1.65,-0.32 2.18,-0.58 1.84,-0.9 3.34,-2.98 3.34,-4.94l0 -30.99c0,-3.43 -3.35,-4.95 -5.5,-6.54l-17.87 -12.37c-3.42,-2.57 -5.96,-2.6 -9.39,-0.05l-12.53 8.68c-0.61,0.4 -1.15,0.8 -1.78,1.23 -0.35,0.24 -0.53,0.4 -0.87,0.63 -0.33,0.22 -0.57,0.36 -0.91,0.6l-5.31 3.73c-0.91,0.76 -2.04,2.5 -2.04,4.1z"/>
 </g>
</svg>
