<?xml version="1.0" encoding="UTF-8"?>
<!DOCTYPE svg PUBLIC "-//W3C//DTD SVG 1.1//EN" "http://www.w3.org/Graphics/SVG/1.1/DTD/svg11.dtd">
<!-- Creator: CorelDRAW (Evaluation Version) -->
<svg xmlns="http://www.w3.org/2000/svg" xml:space="preserve" width="12.7675mm" height="12.7602mm" version="1.1" style="shape-rendering:geometricPrecision; text-rendering:geometricPrecision; image-rendering:optimizeQuality; fill-rule:evenodd; clip-rule:evenodd"
viewBox="0 0 45.08 45.05"
 xmlns:xlink="http://www.w3.org/1999/xlink"
 xmlns:xodm="http://www.corel.com/coreldraw/odm/2003">
 <defs>
  <style type="text/css">
   <![CDATA[
    .fil0 {fill:white}
   ]]>
  </style>
 </defs>
 <g id="Layer_x0020_1">
  <metadata id="CorelCorpID_0Corel-Layer"/>
  <g id="_641552704">
   <path class="fil0" d="M6.81 35.27c-0.97,-0.65 -2.75,-4.3 -3.16,-5.31 -1.62,-4.01 -1.76,-7.9 -0.87,-12.12 0.47,-2.23 1.42,-4.15 2.55,-6.06l2.77 -3.52c0.63,-0.63 1.94,-1.74 2.68,-2.26 2.95,-2.09 7.1,-3.74 11.16,-3.74 2.23,0 3.35,0.05 5.48,0.58 0.72,0.18 1.23,0.34 1.9,0.57 0.57,0.2 1.25,0.47 1.75,0.72 0.55,0.28 1.08,0.52 1.62,0.85 1.33,0.8 1.64,1.04 2.91,2.03l1.87 1.8c0.53,0.69 0.86,0.92 1.63,2.03 0.36,0.52 0.66,0.94 0.97,1.5 1.99,3.66 2.74,6.19 2.74,10.88 0,1.27 -0.23,2.59 -0.45,3.66 -0.23,1.12 -0.58,2.18 -0.97,3.15 -0.62,1.56 -1.72,3.58 -2.8,4.92 -0.16,0.19 -0.13,0.06 -0.2,0.32l-0.15 0c0,-1.55 -1.73,-4.89 -2.78,-6.28 -0.14,-0.18 -0.24,-0.33 -0.39,-0.51l-2.27 -2.3c-1.69,-1.31 -2.59,-1.85 -4.6,-2.66 -0.9,-0.36 -0.53,-0.22 -1.25,0.1 -0.46,0.2 -0.84,0.37 -1.34,0.53 -2.35,0.78 -5.15,0.64 -7.42,-0.5 -0.73,-0.37 -0.54,-0.43 -1.31,-0.14 -2.78,1.05 -5.03,2.66 -6.85,4.9 -0.92,1.13 -1.86,2.69 -2.4,4.04 -0.24,0.6 -0.83,2.12 -0.84,2.82zm-6.81 -12.73c0,5 1.95,10.72 5.26,14.43 0.8,0.9 1.13,1.36 2.06,2.14 0.14,0.12 0.21,0.21 0.34,0.33l2.02 1.58c2.07,1.4 3.26,1.94 5.57,2.82 0.69,0.26 1.47,0.46 2.2,0.64 2.48,0.6 5.15,0.69 7.7,0.44 0.76,-0.08 1.74,-0.26 2.42,-0.42 2.16,-0.51 4.21,-1.28 6.05,-2.34 1.03,-0.59 2.87,-1.83 3.73,-2.64l1.12 -1.05c3.48,-3.48 6.61,-8.99 6.61,-15.93 0,-12.44 -10.1,-22.54 -22.54,-22.54 -6.95,0 -12.44,3.12 -15.93,6.61 -1.15,1.15 -1.58,1.74 -2.55,3.06l-1.58 2.61c-0.17,0.32 -0.29,0.65 -0.45,0.97 -0.93,1.91 -1.97,5.67 -1.95,7.94 0.01,0.53 -0.08,0.78 -0.08,1.35z"/>
   <path class="fil0" d="M14.45 14.53c0,4.36 3.53,7.9 8.01,8.09 0.9,0.04 2.44,-0.34 3.27,-0.7 0.55,-0.23 0.85,-0.4 1.31,-0.71 0.71,-0.48 1.05,-0.79 1.58,-1.42 0.52,-0.62 0.87,-1.07 1.23,-1.84 1.24,-2.66 0.97,-5.65 -0.66,-8.05 -1.31,-1.93 -3.87,-3.46 -6.35,-3.46 -1.62,0 -2.41,0.16 -3.79,0.78 -0.2,0.09 -0.44,0.24 -0.63,0.35 -2.24,1.29 -3.97,3.97 -3.97,6.96z"/>
  </g>
 </g>
</svg>
